G04*
G04 #@! TF.GenerationSoftware,Altium Limited,Altium Designer,20.1.14 (287)*
G04*
G04 Layer_Color=255*
%FSLAX25Y25*%
%MOIN*%
G70*
G04*
G04 #@! TF.SameCoordinates,393418DF-571C-4769-8AC5-FB63858C89C1*
G04*
G04*
G04 #@! TF.FilePolarity,Positive*
G04*
G01*
G75*
%ADD24O,0.08661X0.04331*%
%ADD25O,0.10236X0.05118*%
G04:AMPARAMS|DCode=26|XSize=70.87mil|YSize=70.87mil|CornerRadius=8.86mil|HoleSize=0mil|Usage=FLASHONLY|Rotation=180.000|XOffset=0mil|YOffset=0mil|HoleType=Round|Shape=RoundedRectangle|*
%AMROUNDEDRECTD26*
21,1,0.07087,0.05315,0,0,180.0*
21,1,0.05315,0.07087,0,0,180.0*
1,1,0.01772,-0.02657,0.02657*
1,1,0.01772,0.02657,0.02657*
1,1,0.01772,0.02657,-0.02657*
1,1,0.01772,-0.02657,-0.02657*
%
%ADD26ROUNDEDRECTD26*%
%ADD27C,0.07087*%
%ADD29R,0.02500X0.01900*%
%ADD30R,0.03150X0.03543*%
%ADD31R,0.01968X0.01772*%
%ADD32R,0.03740X0.01968*%
%ADD33R,0.03347X0.04134*%
%ADD34R,0.03150X0.00984*%
%ADD35R,0.00984X0.03150*%
%ADD36R,0.10630X0.10630*%
D24*
X28189Y38465D02*
D03*
Y4449D02*
D03*
D25*
X7087Y38465D02*
D03*
Y4449D02*
D03*
D26*
X49311Y6791D02*
D03*
D27*
X39311D02*
D03*
D29*
X19612Y35433D02*
D03*
X16412D02*
D03*
X19612Y31693D02*
D03*
X16412D02*
D03*
D30*
X40157Y31496D02*
D03*
X44882D02*
D03*
D31*
X6398Y31102D02*
D03*
X9350D02*
D03*
D32*
X33583Y20472D02*
D03*
X25866Y24213D02*
D03*
Y16732D02*
D03*
D33*
X35827Y38484D02*
D03*
X48622D02*
D03*
D34*
X20669Y22441D02*
D03*
Y24409D02*
D03*
Y18504D02*
D03*
Y16535D02*
D03*
Y20472D02*
D03*
Y14567D02*
D03*
X4921Y18504D02*
D03*
Y24409D02*
D03*
Y22441D02*
D03*
Y16535D02*
D03*
Y20472D02*
D03*
Y14567D02*
D03*
D35*
X13780Y27362D02*
D03*
X11811D02*
D03*
X17717D02*
D03*
X15748D02*
D03*
Y11614D02*
D03*
X13780D02*
D03*
X17717D02*
D03*
X7874Y27362D02*
D03*
X9843D02*
D03*
X11811Y11614D02*
D03*
X9843D02*
D03*
X7874D02*
D03*
D36*
X12795Y19488D02*
D03*
M02*
