G04*
G04 #@! TF.GenerationSoftware,Altium Limited,Altium Designer,20.1.14 (287)*
G04*
G04 Layer_Color=8388736*
%FSLAX25Y25*%
%MOIN*%
G70*
G04*
G04 #@! TF.SameCoordinates,393418DF-571C-4769-8AC5-FB63858C89C1*
G04*
G04*
G04 #@! TF.FilePolarity,Negative*
G04*
G01*
G75*
%ADD15R,0.16548X0.12611*%
%ADD16R,0.03556X0.01981*%
%ADD17R,0.03556X0.04737*%
%ADD18O,0.09461X0.05131*%
%ADD19O,0.11036X0.05918*%
G04:AMPARAMS|DCode=20|XSize=78.87mil|YSize=78.87mil|CornerRadius=12.86mil|HoleSize=0mil|Usage=FLASHONLY|Rotation=180.000|XOffset=0mil|YOffset=0mil|HoleType=Round|Shape=RoundedRectangle|*
%AMROUNDEDRECTD20*
21,1,0.07887,0.05315,0,0,180.0*
21,1,0.05315,0.07887,0,0,180.0*
1,1,0.02572,-0.02657,0.02657*
1,1,0.02572,0.02657,0.02657*
1,1,0.02572,0.02657,-0.02657*
1,1,0.02572,-0.02657,-0.02657*
%
%ADD20ROUNDEDRECTD20*%
%ADD21C,0.07887*%
D15*
X46850Y18504D02*
D03*
Y33465D02*
D03*
D16*
X29803Y33268D02*
D03*
Y31299D02*
D03*
Y29331D02*
D03*
Y27362D02*
D03*
Y25394D02*
D03*
Y23425D02*
D03*
Y19488D02*
D03*
Y17520D02*
D03*
Y15551D02*
D03*
Y13583D02*
D03*
Y11614D02*
D03*
Y9646D02*
D03*
X24685Y12598D02*
D03*
Y14567D02*
D03*
Y16535D02*
D03*
Y18504D02*
D03*
Y20472D02*
D03*
Y22441D02*
D03*
Y24409D02*
D03*
Y26378D02*
D03*
Y28346D02*
D03*
Y30315D02*
D03*
D17*
Y9252D02*
D03*
Y33661D02*
D03*
D18*
X28189Y38465D02*
D03*
Y4449D02*
D03*
D19*
X7087Y38465D02*
D03*
Y4449D02*
D03*
D20*
X49311Y6791D02*
D03*
D21*
X39311D02*
D03*
M02*
