G04*
G04 #@! TF.GenerationSoftware,Altium Limited,Altium Designer,20.1.14 (287)*
G04*
G04 Layer_Color=32896*
%FSLAX25Y25*%
%MOIN*%
G70*
G04*
G04 #@! TF.SameCoordinates,393418DF-571C-4769-8AC5-FB63858C89C1*
G04*
G04*
G04 #@! TF.FilePolarity,Positive*
G04*
G01*
G75*
%ADD10C,0.00500*%
%ADD11C,0.01000*%
%ADD45C,0.00984*%
%ADD46C,0.00394*%
%ADD47C,0.00787*%
G36*
X54182Y19402D02*
Y19379D01*
Y19357D01*
Y19335D01*
Y19313D01*
Y19291D01*
Y19268D01*
Y19246D01*
Y19224D01*
Y19202D01*
Y19180D01*
Y19157D01*
Y19135D01*
Y19113D01*
Y19091D01*
Y19068D01*
Y19046D01*
Y19024D01*
Y19002D01*
Y18980D01*
Y18957D01*
Y18935D01*
Y18913D01*
Y18891D01*
Y18868D01*
Y18846D01*
Y18824D01*
Y18802D01*
Y18779D01*
Y18757D01*
Y18735D01*
Y18713D01*
Y18691D01*
Y18668D01*
Y18646D01*
Y18624D01*
Y18602D01*
Y18580D01*
Y18557D01*
Y18535D01*
Y18513D01*
Y18491D01*
Y18469D01*
Y18446D01*
Y18424D01*
Y18402D01*
Y18380D01*
Y18357D01*
Y18335D01*
Y18313D01*
Y18291D01*
Y18269D01*
Y18246D01*
Y18224D01*
Y18202D01*
Y18180D01*
Y18157D01*
Y18135D01*
Y18113D01*
Y18091D01*
Y18068D01*
Y18046D01*
Y18024D01*
Y18002D01*
Y17980D01*
Y17957D01*
Y17935D01*
Y17913D01*
Y17891D01*
Y17869D01*
Y17846D01*
Y17824D01*
Y17802D01*
Y17780D01*
Y17758D01*
Y17735D01*
Y17713D01*
Y17691D01*
Y17669D01*
Y17646D01*
Y17624D01*
Y17602D01*
Y17580D01*
Y17558D01*
Y17535D01*
Y17513D01*
Y17491D01*
Y17469D01*
Y17446D01*
Y17424D01*
Y17402D01*
Y17380D01*
Y17357D01*
Y17335D01*
Y17313D01*
Y17291D01*
Y17269D01*
Y17246D01*
Y17224D01*
Y17202D01*
Y17180D01*
Y17158D01*
Y17135D01*
Y17113D01*
Y17091D01*
Y17069D01*
Y17047D01*
Y17024D01*
Y17002D01*
Y16980D01*
Y16958D01*
Y16935D01*
Y16913D01*
Y16891D01*
Y16869D01*
Y16847D01*
Y16824D01*
Y16802D01*
Y16780D01*
Y16758D01*
Y16735D01*
Y16713D01*
Y16691D01*
Y16669D01*
Y16646D01*
Y16624D01*
Y16602D01*
Y16580D01*
Y16558D01*
Y16535D01*
Y16513D01*
Y16491D01*
Y16469D01*
Y16447D01*
Y16424D01*
Y16402D01*
Y16380D01*
Y16358D01*
Y16335D01*
Y16313D01*
Y16291D01*
Y16269D01*
Y16247D01*
Y16224D01*
Y16202D01*
Y16180D01*
Y16158D01*
Y16136D01*
Y16113D01*
Y16091D01*
Y16069D01*
Y16047D01*
Y16024D01*
Y16002D01*
Y15980D01*
Y15958D01*
Y15935D01*
Y15913D01*
Y15891D01*
Y15869D01*
Y15847D01*
Y15824D01*
Y15802D01*
Y15780D01*
Y15758D01*
Y15736D01*
Y15713D01*
Y15691D01*
Y15669D01*
Y15647D01*
Y15624D01*
Y15602D01*
Y15580D01*
Y15558D01*
Y15536D01*
Y15513D01*
Y15491D01*
Y15469D01*
Y15447D01*
Y15425D01*
Y15402D01*
Y15380D01*
Y15358D01*
Y15336D01*
Y15313D01*
Y15291D01*
Y15269D01*
Y15247D01*
Y15225D01*
Y15202D01*
Y15180D01*
Y15158D01*
Y15136D01*
Y15113D01*
Y15091D01*
Y15069D01*
Y15047D01*
Y15024D01*
Y15002D01*
Y14980D01*
Y14958D01*
Y14936D01*
Y14913D01*
Y14891D01*
Y14869D01*
Y14847D01*
Y14825D01*
Y14802D01*
Y14780D01*
Y14758D01*
Y14736D01*
Y14714D01*
Y14691D01*
Y14669D01*
Y14647D01*
Y14625D01*
Y14602D01*
Y14580D01*
Y14558D01*
Y14536D01*
Y14514D01*
Y14491D01*
Y14469D01*
Y14447D01*
Y14425D01*
Y14402D01*
Y14380D01*
Y14358D01*
Y14336D01*
Y14314D01*
Y14291D01*
Y14269D01*
Y14247D01*
Y14225D01*
Y14202D01*
Y14180D01*
Y14158D01*
Y14136D01*
Y14114D01*
Y14091D01*
Y14069D01*
Y14047D01*
Y14025D01*
Y14003D01*
Y13980D01*
Y13958D01*
Y13936D01*
Y13914D01*
Y13891D01*
Y13869D01*
Y13847D01*
Y13825D01*
Y13803D01*
Y13780D01*
Y13758D01*
Y13736D01*
Y13714D01*
Y13691D01*
Y13669D01*
Y13647D01*
Y13625D01*
Y13602D01*
Y13580D01*
Y13558D01*
Y13536D01*
Y13514D01*
Y13491D01*
Y13469D01*
Y13447D01*
Y13425D01*
Y13403D01*
Y13380D01*
Y13358D01*
Y13336D01*
Y13314D01*
Y13292D01*
Y13269D01*
Y13247D01*
Y13225D01*
Y13203D01*
Y13180D01*
Y13158D01*
Y13136D01*
Y13114D01*
Y13092D01*
Y13069D01*
Y13047D01*
Y13025D01*
Y13003D01*
Y12980D01*
Y12958D01*
Y12936D01*
Y12914D01*
Y12892D01*
Y12869D01*
Y12847D01*
Y12825D01*
Y12803D01*
Y12780D01*
Y12758D01*
Y12736D01*
Y12714D01*
Y12692D01*
Y12669D01*
Y12647D01*
Y12625D01*
Y12603D01*
Y12581D01*
Y12558D01*
Y12536D01*
Y12514D01*
Y12492D01*
Y12469D01*
Y12447D01*
Y12425D01*
Y12403D01*
Y12381D01*
Y12358D01*
Y12336D01*
Y12314D01*
Y12292D01*
Y12269D01*
Y12247D01*
Y12225D01*
Y12203D01*
Y12180D01*
Y12158D01*
Y12136D01*
Y12114D01*
Y12092D01*
Y12070D01*
Y12047D01*
Y12025D01*
Y12003D01*
Y11981D01*
Y11958D01*
Y11936D01*
Y11914D01*
Y11892D01*
Y11869D01*
Y11847D01*
Y11825D01*
Y11803D01*
Y11781D01*
Y11758D01*
Y11736D01*
Y11714D01*
Y11692D01*
Y11670D01*
Y11647D01*
Y11625D01*
Y11603D01*
Y11581D01*
Y11558D01*
Y11536D01*
Y11514D01*
Y11492D01*
Y11469D01*
Y11447D01*
Y11425D01*
Y11403D01*
Y11381D01*
Y11359D01*
Y11336D01*
Y11314D01*
Y11292D01*
Y11270D01*
Y11247D01*
Y11225D01*
Y11203D01*
Y11181D01*
Y11158D01*
Y11136D01*
Y11114D01*
Y11092D01*
Y11070D01*
Y11047D01*
Y11025D01*
X41451D01*
Y11047D01*
Y11070D01*
Y11092D01*
Y11114D01*
Y11136D01*
Y11158D01*
Y11181D01*
Y11203D01*
Y11225D01*
Y11247D01*
Y11270D01*
Y11292D01*
Y11314D01*
Y11336D01*
Y11359D01*
Y11381D01*
Y11403D01*
Y11425D01*
Y11447D01*
Y11469D01*
Y11492D01*
Y11514D01*
Y11536D01*
Y11558D01*
Y11581D01*
Y11603D01*
Y11625D01*
Y11647D01*
Y11670D01*
Y11692D01*
Y11714D01*
Y11736D01*
Y11758D01*
Y11781D01*
Y11803D01*
Y11825D01*
Y11847D01*
Y11869D01*
Y11892D01*
Y11914D01*
Y11936D01*
Y11958D01*
Y11981D01*
Y12003D01*
Y12025D01*
Y12047D01*
Y12070D01*
Y12092D01*
Y12114D01*
Y12136D01*
Y12158D01*
Y12180D01*
Y12203D01*
Y12225D01*
Y12247D01*
Y12269D01*
Y12292D01*
Y12314D01*
Y12336D01*
Y12358D01*
Y12381D01*
Y12403D01*
Y12425D01*
Y12447D01*
Y12469D01*
Y12492D01*
Y12514D01*
Y12536D01*
Y12558D01*
Y12581D01*
Y12603D01*
Y12625D01*
Y12647D01*
Y12669D01*
Y12692D01*
Y12714D01*
Y12736D01*
Y12758D01*
Y12780D01*
Y12803D01*
Y12825D01*
Y12847D01*
Y12869D01*
Y12892D01*
Y12914D01*
Y12936D01*
Y12958D01*
Y12980D01*
Y13003D01*
Y13025D01*
Y13047D01*
Y13069D01*
Y13092D01*
Y13114D01*
Y13136D01*
Y13158D01*
Y13180D01*
Y13203D01*
Y13225D01*
Y13247D01*
Y13269D01*
Y13292D01*
Y13314D01*
Y13336D01*
Y13358D01*
Y13380D01*
Y13403D01*
Y13425D01*
Y13447D01*
Y13469D01*
Y13491D01*
Y13514D01*
Y13536D01*
Y13558D01*
Y13580D01*
Y13602D01*
Y13625D01*
Y13647D01*
Y13669D01*
Y13691D01*
Y13714D01*
Y13736D01*
Y13758D01*
Y13780D01*
Y13803D01*
Y13825D01*
Y13847D01*
Y13869D01*
Y13891D01*
Y13914D01*
Y13936D01*
Y13958D01*
Y13980D01*
Y14003D01*
Y14025D01*
Y14047D01*
Y14069D01*
Y14091D01*
Y14114D01*
Y14136D01*
Y14158D01*
Y14180D01*
Y14202D01*
Y14225D01*
Y14247D01*
Y14269D01*
Y14291D01*
Y14314D01*
Y14336D01*
Y14358D01*
Y14380D01*
Y14402D01*
Y14425D01*
Y14447D01*
Y14469D01*
Y14491D01*
Y14514D01*
Y14536D01*
Y14558D01*
Y14580D01*
Y14602D01*
Y14625D01*
Y14647D01*
Y14669D01*
Y14691D01*
Y14714D01*
Y14736D01*
Y14758D01*
Y14780D01*
Y14802D01*
Y14825D01*
Y14847D01*
Y14869D01*
Y14891D01*
Y14913D01*
Y14936D01*
Y14958D01*
Y14980D01*
Y15002D01*
Y15024D01*
Y15047D01*
Y15069D01*
Y15091D01*
Y15113D01*
Y15136D01*
Y15158D01*
Y15180D01*
Y15202D01*
Y15225D01*
Y15247D01*
Y15269D01*
Y15291D01*
Y15313D01*
Y15336D01*
Y15358D01*
Y15380D01*
Y15402D01*
Y15425D01*
Y15447D01*
Y15469D01*
Y15491D01*
Y15513D01*
Y15536D01*
Y15558D01*
Y15580D01*
Y15602D01*
Y15624D01*
Y15647D01*
Y15669D01*
Y15691D01*
Y15713D01*
Y15736D01*
Y15758D01*
Y15780D01*
Y15802D01*
Y15824D01*
Y15847D01*
Y15869D01*
Y15891D01*
Y15913D01*
Y15935D01*
Y15958D01*
Y15980D01*
Y16002D01*
Y16024D01*
Y16047D01*
Y16069D01*
Y16091D01*
Y16113D01*
Y16136D01*
Y16158D01*
Y16180D01*
Y16202D01*
Y16224D01*
Y16247D01*
Y16269D01*
Y16291D01*
Y16313D01*
Y16335D01*
Y16358D01*
Y16380D01*
Y16402D01*
Y16424D01*
Y16447D01*
Y16469D01*
Y16491D01*
Y16513D01*
Y16535D01*
Y16558D01*
Y16580D01*
Y16602D01*
Y16624D01*
Y16646D01*
Y16669D01*
Y16691D01*
Y16713D01*
Y16735D01*
Y16758D01*
Y16780D01*
Y16802D01*
Y16824D01*
Y16847D01*
Y16869D01*
Y16891D01*
Y16913D01*
Y16935D01*
Y16958D01*
Y16980D01*
Y17002D01*
Y17024D01*
Y17047D01*
Y17069D01*
Y17091D01*
Y17113D01*
Y17135D01*
Y17158D01*
Y17180D01*
Y17202D01*
Y17224D01*
Y17246D01*
Y17269D01*
Y17291D01*
Y17313D01*
Y17335D01*
Y17357D01*
Y17380D01*
Y17402D01*
Y17424D01*
Y17446D01*
Y17469D01*
Y17491D01*
Y17513D01*
Y17535D01*
Y17558D01*
Y17580D01*
Y17602D01*
Y17624D01*
Y17646D01*
Y17669D01*
Y17691D01*
Y17713D01*
Y17735D01*
Y17758D01*
Y17780D01*
Y17802D01*
Y17824D01*
Y17846D01*
Y17869D01*
Y17891D01*
Y17913D01*
Y17935D01*
Y17957D01*
Y17980D01*
Y18002D01*
Y18024D01*
Y18046D01*
Y18068D01*
Y18091D01*
Y18113D01*
Y18135D01*
Y18157D01*
Y18180D01*
Y18202D01*
Y18224D01*
Y18246D01*
Y18269D01*
Y18291D01*
Y18313D01*
Y18335D01*
Y18357D01*
Y18380D01*
Y18402D01*
Y18424D01*
Y18446D01*
Y18469D01*
Y18491D01*
Y18513D01*
Y18535D01*
Y18557D01*
Y18580D01*
Y18602D01*
Y18624D01*
Y18646D01*
Y18668D01*
Y18691D01*
Y18713D01*
Y18735D01*
Y18757D01*
Y18779D01*
Y18802D01*
Y18824D01*
Y18846D01*
Y18868D01*
Y18891D01*
Y18913D01*
Y18935D01*
Y18957D01*
Y18980D01*
Y19002D01*
Y19024D01*
Y19046D01*
Y19068D01*
Y19091D01*
Y19113D01*
Y19135D01*
Y19157D01*
Y19180D01*
Y19202D01*
Y19224D01*
Y19246D01*
Y19268D01*
Y19291D01*
Y19313D01*
Y19335D01*
Y19357D01*
Y19379D01*
Y19402D01*
Y19424D01*
X54182D01*
Y19402D01*
D02*
G37*
G36*
X29181Y29921D02*
X28565D01*
Y31320D01*
X27650D01*
Y29921D01*
X27033D01*
Y33151D01*
X27650D01*
Y31825D01*
X28565D01*
Y33151D01*
X29181D01*
Y29921D01*
D02*
G37*
G36*
X31895D02*
X31268D01*
Y30870D01*
X30930Y31248D01*
X30130Y29921D01*
X29387D01*
X30513Y31719D01*
X29426Y33151D01*
X30191D01*
X30974Y32064D01*
X31268Y31670D01*
Y33151D01*
X31895D01*
Y29921D01*
D02*
G37*
G36*
X26456D02*
X25585D01*
X25474Y29927D01*
X25368Y29938D01*
X25274Y29955D01*
X25191Y29977D01*
X25119Y29993D01*
X25069Y30010D01*
X25036Y30021D01*
X25024Y30027D01*
X24930Y30071D01*
X24847Y30121D01*
X24775Y30171D01*
X24708Y30221D01*
X24658Y30265D01*
X24619Y30299D01*
X24591Y30321D01*
X24586Y30332D01*
X24519Y30410D01*
X24464Y30487D01*
X24414Y30565D01*
X24375Y30637D01*
X24342Y30704D01*
X24320Y30754D01*
X24308Y30787D01*
X24303Y30793D01*
Y30798D01*
X24270Y30904D01*
X24247Y31009D01*
X24225Y31109D01*
X24214Y31198D01*
X24209Y31281D01*
X24203Y31342D01*
Y31364D01*
Y31381D01*
Y31392D01*
Y31398D01*
Y31664D01*
X24209Y31786D01*
X24220Y31897D01*
X24236Y31997D01*
X24253Y32086D01*
X24270Y32158D01*
X24286Y32213D01*
X24292Y32236D01*
X24297Y32252D01*
X24303Y32258D01*
Y32263D01*
X24342Y32363D01*
X24392Y32452D01*
X24436Y32530D01*
X24486Y32596D01*
X24525Y32652D01*
X24558Y32696D01*
X24580Y32719D01*
X24591Y32730D01*
X24664Y32802D01*
X24736Y32863D01*
X24814Y32918D01*
X24880Y32963D01*
X24941Y32996D01*
X24991Y33018D01*
X25024Y33035D01*
X25030Y33040D01*
X25036D01*
X25135Y33079D01*
X25235Y33107D01*
X25335Y33124D01*
X25424Y33140D01*
X25502Y33146D01*
X25563Y33151D01*
X26456D01*
Y29921D01*
D02*
G37*
G36*
X50085Y28250D02*
X50130Y28245D01*
X50163Y28234D01*
X50169Y28228D01*
X50174D01*
X50218Y28206D01*
X50252Y28189D01*
X50274Y28167D01*
X50285Y28161D01*
X50313Y28128D01*
X50335Y28095D01*
X50352Y28073D01*
X50357Y28067D01*
Y28062D01*
X50368Y28017D01*
X50374Y27973D01*
X50380Y27939D01*
Y27934D01*
Y27928D01*
X50374Y27878D01*
X50368Y27834D01*
X50363Y27806D01*
X50357Y27801D01*
Y27795D01*
X50335Y27751D01*
X50313Y27717D01*
X50291Y27695D01*
X50285Y27690D01*
X50246Y27662D01*
X50213Y27640D01*
X50185Y27629D01*
X50174Y27623D01*
X50124Y27612D01*
X50074Y27606D01*
X50035Y27601D01*
X50024D01*
X49969Y27606D01*
X49919Y27617D01*
X49874Y27629D01*
X49836Y27645D01*
X49808Y27662D01*
X49786Y27679D01*
X49775Y27684D01*
X49769Y27690D01*
X49736Y27729D01*
X49714Y27767D01*
X49691Y27806D01*
X49680Y27845D01*
X49675Y27878D01*
X49669Y27906D01*
Y27923D01*
Y27928D01*
X49675Y27978D01*
X49686Y28028D01*
X49702Y28067D01*
X49719Y28100D01*
X49736Y28128D01*
X49752Y28145D01*
X49763Y28156D01*
X49769Y28161D01*
X49808Y28195D01*
X49847Y28217D01*
X49891Y28234D01*
X49930Y28245D01*
X49969Y28250D01*
X49997Y28256D01*
X50024D01*
X50085Y28250D01*
D02*
G37*
G36*
X44635D02*
X44680Y28245D01*
X44713Y28234D01*
X44719Y28228D01*
X44724D01*
X44768Y28206D01*
X44802Y28189D01*
X44824Y28167D01*
X44835Y28161D01*
X44863Y28128D01*
X44885Y28095D01*
X44902Y28073D01*
X44907Y28067D01*
Y28062D01*
X44918Y28017D01*
X44924Y27973D01*
X44929Y27939D01*
Y27934D01*
Y27928D01*
X44924Y27878D01*
X44918Y27834D01*
X44913Y27806D01*
X44907Y27801D01*
Y27795D01*
X44885Y27751D01*
X44863Y27717D01*
X44841Y27695D01*
X44835Y27690D01*
X44796Y27662D01*
X44763Y27640D01*
X44735Y27629D01*
X44724Y27623D01*
X44674Y27612D01*
X44624Y27606D01*
X44585Y27601D01*
X44574D01*
X44519Y27606D01*
X44469Y27617D01*
X44424Y27629D01*
X44385Y27645D01*
X44358Y27662D01*
X44335Y27679D01*
X44324Y27684D01*
X44319Y27690D01*
X44286Y27729D01*
X44263Y27767D01*
X44241Y27806D01*
X44230Y27845D01*
X44225Y27878D01*
X44219Y27906D01*
Y27923D01*
Y27928D01*
X44225Y27978D01*
X44236Y28028D01*
X44252Y28067D01*
X44269Y28100D01*
X44286Y28128D01*
X44302Y28145D01*
X44313Y28156D01*
X44319Y28161D01*
X44358Y28195D01*
X44397Y28217D01*
X44441Y28234D01*
X44480Y28245D01*
X44519Y28250D01*
X44546Y28256D01*
X44574D01*
X44635Y28250D01*
D02*
G37*
G36*
X53943Y24915D02*
X53371D01*
Y25869D01*
X53393Y27318D01*
X53016Y25975D01*
X52705D01*
X52283Y27379D01*
X52311Y25869D01*
Y24915D01*
X51739D01*
Y28145D01*
X52511D01*
X52860Y26929D01*
X53166Y28145D01*
X53943D01*
Y24915D01*
D02*
G37*
G36*
X51023Y26807D02*
X50335D01*
Y25414D01*
X51023D01*
Y24915D01*
X49064D01*
Y25414D01*
X49714D01*
Y27312D01*
X51023D01*
Y26807D01*
D02*
G37*
G36*
X47227Y27351D02*
X47299Y27340D01*
X47371Y27323D01*
X47427Y27307D01*
X47477Y27290D01*
X47516Y27273D01*
X47538Y27262D01*
X47549Y27257D01*
X47616Y27218D01*
X47677Y27174D01*
X47732Y27129D01*
X47776Y27085D01*
X47815Y27040D01*
X47843Y27007D01*
X47860Y26985D01*
X47865Y26979D01*
X47899Y27312D01*
X48459D01*
Y24915D01*
X47843D01*
Y26618D01*
X47782Y26691D01*
X47727Y26746D01*
X47699Y26763D01*
X47677Y26779D01*
X47666Y26791D01*
X47660D01*
X47616Y26813D01*
X47571Y26829D01*
X47482Y26852D01*
X47449D01*
X47421Y26857D01*
X47394D01*
X47321Y26852D01*
X47260Y26846D01*
X47238Y26840D01*
X47221D01*
X47210Y26835D01*
X47205D01*
X47144Y26813D01*
X47099Y26791D01*
X47072Y26768D01*
X47061Y26757D01*
X47022Y26713D01*
X46988Y26669D01*
X46977Y26646D01*
X46972Y26630D01*
X46966Y26618D01*
Y26613D01*
X46944Y26541D01*
X46938Y26463D01*
X46933Y26430D01*
Y26402D01*
Y26385D01*
Y26380D01*
Y24915D01*
X46317D01*
Y26391D01*
Y26485D01*
X46328Y26569D01*
X46334Y26646D01*
X46345Y26713D01*
X46356Y26763D01*
X46367Y26802D01*
X46372Y26829D01*
X46378Y26835D01*
X46400Y26902D01*
X46428Y26957D01*
X46461Y27013D01*
X46489Y27051D01*
X46511Y27090D01*
X46533Y27112D01*
X46544Y27129D01*
X46550Y27135D01*
X46589Y27174D01*
X46633Y27212D01*
X46678Y27240D01*
X46722Y27262D01*
X46755Y27279D01*
X46783Y27290D01*
X46805Y27301D01*
X46811D01*
X46927Y27334D01*
X46983Y27346D01*
X47033Y27351D01*
X47077Y27357D01*
X47144D01*
X47227Y27351D01*
D02*
G37*
G36*
X45573Y26807D02*
X44885D01*
Y25414D01*
X45573D01*
Y24915D01*
X43614D01*
Y25414D01*
X44263D01*
Y27312D01*
X45573D01*
Y26807D01*
D02*
G37*
G36*
X40267Y24915D02*
X39646D01*
Y26097D01*
X39163D01*
X39063Y26102D01*
X38974Y26108D01*
X38897Y26119D01*
X38824Y26136D01*
X38769Y26147D01*
X38724Y26158D01*
X38697Y26163D01*
X38686Y26169D01*
X38608Y26202D01*
X38536Y26236D01*
X38475Y26269D01*
X38419Y26302D01*
X38380Y26335D01*
X38347Y26358D01*
X38325Y26374D01*
X38319Y26380D01*
X38264Y26435D01*
X38219Y26491D01*
X38181Y26541D01*
X38147Y26591D01*
X38125Y26635D01*
X38108Y26669D01*
X38097Y26696D01*
X38092Y26702D01*
X38064Y26774D01*
X38042Y26840D01*
X38031Y26907D01*
X38020Y26968D01*
X38014Y27024D01*
X38008Y27062D01*
Y27090D01*
Y27101D01*
X38014Y27185D01*
X38020Y27268D01*
X38036Y27340D01*
X38047Y27401D01*
X38064Y27451D01*
X38081Y27490D01*
X38086Y27512D01*
X38092Y27523D01*
X38125Y27595D01*
X38158Y27656D01*
X38197Y27712D01*
X38236Y27762D01*
X38269Y27801D01*
X38297Y27828D01*
X38314Y27845D01*
X38319Y27851D01*
X38380Y27901D01*
X38441Y27945D01*
X38502Y27978D01*
X38558Y28012D01*
X38608Y28034D01*
X38647Y28050D01*
X38675Y28062D01*
X38686Y28067D01*
X38769Y28095D01*
X38847Y28111D01*
X38930Y28128D01*
X39002Y28134D01*
X39069Y28139D01*
X39118Y28145D01*
X40267D01*
Y24915D01*
D02*
G37*
G36*
X37598D02*
X36726D01*
X36615Y24920D01*
X36510Y24931D01*
X36416Y24948D01*
X36332Y24970D01*
X36260Y24987D01*
X36210Y25003D01*
X36177Y25015D01*
X36166Y25020D01*
X36072Y25065D01*
X35988Y25115D01*
X35916Y25164D01*
X35850Y25214D01*
X35800Y25259D01*
X35761Y25292D01*
X35733Y25314D01*
X35728Y25325D01*
X35661Y25403D01*
X35605Y25481D01*
X35555Y25559D01*
X35517Y25631D01*
X35483Y25697D01*
X35461Y25747D01*
X35450Y25780D01*
X35444Y25786D01*
Y25792D01*
X35411Y25897D01*
X35389Y26002D01*
X35367Y26102D01*
X35356Y26191D01*
X35350Y26274D01*
X35344Y26335D01*
Y26358D01*
Y26374D01*
Y26385D01*
Y26391D01*
Y26657D01*
X35350Y26779D01*
X35361Y26891D01*
X35378Y26990D01*
X35394Y27079D01*
X35411Y27151D01*
X35428Y27207D01*
X35433Y27229D01*
X35439Y27246D01*
X35444Y27251D01*
Y27257D01*
X35483Y27357D01*
X35533Y27446D01*
X35578Y27523D01*
X35628Y27590D01*
X35666Y27645D01*
X35700Y27690D01*
X35722Y27712D01*
X35733Y27723D01*
X35805Y27795D01*
X35877Y27856D01*
X35955Y27912D01*
X36022Y27956D01*
X36083Y27989D01*
X36133Y28012D01*
X36166Y28028D01*
X36171Y28034D01*
X36177D01*
X36277Y28073D01*
X36377Y28100D01*
X36477Y28117D01*
X36566Y28134D01*
X36643Y28139D01*
X36704Y28145D01*
X37598D01*
Y24915D01*
D02*
G37*
G36*
X42992Y24437D02*
X40972D01*
Y24915D01*
X42992D01*
Y24437D01*
D02*
G37*
G36*
X52888Y23786D02*
X52977Y23780D01*
X53060Y23764D01*
X53127Y23753D01*
X53182Y23736D01*
X53227Y23719D01*
X53254Y23714D01*
X53266Y23708D01*
X53343Y23675D01*
X53410Y23636D01*
X53471Y23597D01*
X53526Y23564D01*
X53565Y23530D01*
X53598Y23503D01*
X53621Y23486D01*
X53626Y23481D01*
X53682Y23425D01*
X53726Y23370D01*
X53765Y23309D01*
X53798Y23258D01*
X53826Y23209D01*
X53843Y23175D01*
X53854Y23153D01*
X53859Y23142D01*
X53887Y23070D01*
X53904Y22998D01*
X53920Y22931D01*
X53926Y22870D01*
X53931Y22815D01*
X53937Y22776D01*
Y22748D01*
Y22737D01*
X53321D01*
X53315Y22826D01*
X53304Y22909D01*
X53282Y22975D01*
X53260Y23031D01*
X53238Y23075D01*
X53215Y23103D01*
X53204Y23125D01*
X53199Y23131D01*
X53143Y23181D01*
X53082Y23214D01*
X53021Y23242D01*
X52960Y23258D01*
X52905Y23270D01*
X52860Y23275D01*
X52816D01*
X52749Y23270D01*
X52694Y23258D01*
X52672Y23253D01*
X52655Y23247D01*
X52649Y23242D01*
X52644D01*
X52588Y23214D01*
X52544Y23186D01*
X52516Y23164D01*
X52505Y23159D01*
Y23153D01*
X52466Y23109D01*
X52444Y23059D01*
X52427Y23025D01*
X52422Y23014D01*
Y23009D01*
X52400Y22942D01*
X52394Y22881D01*
X52389Y22859D01*
Y22837D01*
Y22826D01*
Y22820D01*
X52394Y22765D01*
X52400Y22715D01*
X52405Y22676D01*
X52411Y22670D01*
Y22665D01*
X52433Y22604D01*
X52455Y22554D01*
X52472Y22532D01*
X52477Y22515D01*
X52488Y22504D01*
Y22498D01*
X52533Y22432D01*
X52572Y22365D01*
X52594Y22337D01*
X52605Y22315D01*
X52616Y22304D01*
X52622Y22298D01*
X52688Y22215D01*
X52755Y22137D01*
X52783Y22110D01*
X52805Y22082D01*
X52821Y22065D01*
X52827Y22060D01*
X53876Y20933D01*
Y20517D01*
X51667D01*
Y21011D01*
X53088D01*
X52477Y21655D01*
X52366Y21771D01*
X52322Y21821D01*
X52278Y21866D01*
X52244Y21904D01*
X52217Y21938D01*
X52200Y21954D01*
X52194Y21960D01*
X52105Y22071D01*
X52067Y22115D01*
X52033Y22160D01*
X52011Y22198D01*
X51989Y22226D01*
X51978Y22243D01*
X51972Y22248D01*
X51911Y22354D01*
X51884Y22404D01*
X51867Y22448D01*
X51850Y22481D01*
X51839Y22515D01*
X51828Y22532D01*
Y22537D01*
X51800Y22648D01*
X51789Y22698D01*
X51784Y22748D01*
X51778Y22787D01*
Y22815D01*
Y22837D01*
Y22842D01*
Y22920D01*
X51789Y22992D01*
X51800Y23059D01*
X51811Y23114D01*
X51823Y23159D01*
X51834Y23198D01*
X51839Y23220D01*
X51845Y23225D01*
X51872Y23292D01*
X51900Y23347D01*
X51933Y23397D01*
X51967Y23442D01*
X51995Y23475D01*
X52017Y23503D01*
X52033Y23519D01*
X52039Y23525D01*
X52089Y23569D01*
X52144Y23608D01*
X52194Y23641D01*
X52250Y23669D01*
X52294Y23691D01*
X52328Y23708D01*
X52350Y23714D01*
X52361Y23719D01*
X52433Y23741D01*
X52505Y23764D01*
X52583Y23775D01*
X52649Y23780D01*
X52705Y23786D01*
X52755Y23791D01*
X52794D01*
X52888Y23786D01*
D02*
G37*
G36*
X47438D02*
X47527Y23780D01*
X47610Y23764D01*
X47677Y23753D01*
X47732Y23736D01*
X47776Y23719D01*
X47804Y23714D01*
X47815Y23708D01*
X47893Y23675D01*
X47960Y23636D01*
X48021Y23597D01*
X48076Y23564D01*
X48115Y23530D01*
X48148Y23503D01*
X48171Y23486D01*
X48176Y23481D01*
X48232Y23425D01*
X48276Y23370D01*
X48315Y23309D01*
X48348Y23258D01*
X48376Y23209D01*
X48393Y23175D01*
X48404Y23153D01*
X48409Y23142D01*
X48437Y23070D01*
X48454Y22998D01*
X48470Y22931D01*
X48476Y22870D01*
X48481Y22815D01*
X48487Y22776D01*
Y22748D01*
Y22737D01*
X47871D01*
X47865Y22826D01*
X47854Y22909D01*
X47832Y22975D01*
X47810Y23031D01*
X47788Y23075D01*
X47765Y23103D01*
X47754Y23125D01*
X47749Y23131D01*
X47693Y23181D01*
X47632Y23214D01*
X47571Y23242D01*
X47510Y23258D01*
X47455Y23270D01*
X47410Y23275D01*
X47366D01*
X47299Y23270D01*
X47244Y23258D01*
X47221Y23253D01*
X47205Y23247D01*
X47199Y23242D01*
X47194D01*
X47138Y23214D01*
X47094Y23186D01*
X47066Y23164D01*
X47055Y23159D01*
Y23153D01*
X47016Y23109D01*
X46994Y23059D01*
X46977Y23025D01*
X46972Y23014D01*
Y23009D01*
X46950Y22942D01*
X46944Y22881D01*
X46938Y22859D01*
Y22837D01*
Y22826D01*
Y22820D01*
X46944Y22765D01*
X46950Y22715D01*
X46955Y22676D01*
X46961Y22670D01*
Y22665D01*
X46983Y22604D01*
X47005Y22554D01*
X47022Y22532D01*
X47027Y22515D01*
X47038Y22504D01*
Y22498D01*
X47083Y22432D01*
X47122Y22365D01*
X47144Y22337D01*
X47155Y22315D01*
X47166Y22304D01*
X47172Y22298D01*
X47238Y22215D01*
X47305Y22137D01*
X47333Y22110D01*
X47355Y22082D01*
X47371Y22065D01*
X47377Y22060D01*
X48426Y20933D01*
Y20517D01*
X46217D01*
Y21011D01*
X47638D01*
X47027Y21655D01*
X46916Y21771D01*
X46872Y21821D01*
X46828Y21866D01*
X46794Y21904D01*
X46766Y21938D01*
X46750Y21954D01*
X46744Y21960D01*
X46655Y22071D01*
X46617Y22115D01*
X46583Y22160D01*
X46561Y22198D01*
X46539Y22226D01*
X46528Y22243D01*
X46522Y22248D01*
X46461Y22354D01*
X46433Y22404D01*
X46417Y22448D01*
X46400Y22481D01*
X46389Y22515D01*
X46378Y22532D01*
Y22537D01*
X46350Y22648D01*
X46339Y22698D01*
X46334Y22748D01*
X46328Y22787D01*
Y22815D01*
Y22837D01*
Y22842D01*
Y22920D01*
X46339Y22992D01*
X46350Y23059D01*
X46361Y23114D01*
X46372Y23159D01*
X46384Y23198D01*
X46389Y23220D01*
X46395Y23225D01*
X46422Y23292D01*
X46450Y23347D01*
X46483Y23397D01*
X46517Y23442D01*
X46544Y23475D01*
X46567Y23503D01*
X46583Y23519D01*
X46589Y23525D01*
X46639Y23569D01*
X46694Y23608D01*
X46744Y23641D01*
X46800Y23669D01*
X46844Y23691D01*
X46877Y23708D01*
X46900Y23714D01*
X46911Y23719D01*
X46983Y23741D01*
X47055Y23764D01*
X47133Y23775D01*
X47199Y23780D01*
X47255Y23786D01*
X47305Y23791D01*
X47344D01*
X47438Y23786D01*
D02*
G37*
G36*
X50096D02*
X50180Y23780D01*
X50252Y23764D01*
X50318Y23753D01*
X50374Y23736D01*
X50413Y23719D01*
X50435Y23714D01*
X50446Y23708D01*
X50518Y23675D01*
X50579Y23636D01*
X50635Y23597D01*
X50685Y23558D01*
X50724Y23525D01*
X50757Y23497D01*
X50774Y23475D01*
X50779Y23469D01*
X50823Y23408D01*
X50868Y23342D01*
X50901Y23275D01*
X50929Y23209D01*
X50957Y23153D01*
X50973Y23109D01*
X50979Y23081D01*
X50984Y23075D01*
Y23070D01*
X51007Y22975D01*
X51023Y22881D01*
X51040Y22787D01*
X51046Y22704D01*
X51051Y22626D01*
X51057Y22570D01*
Y22548D01*
Y22532D01*
Y22520D01*
Y22515D01*
Y21743D01*
X51051Y21632D01*
X51046Y21527D01*
X51034Y21433D01*
X51018Y21355D01*
X51007Y21288D01*
X50995Y21238D01*
X50990Y21205D01*
X50984Y21200D01*
Y21194D01*
X50951Y21111D01*
X50918Y21033D01*
X50884Y20961D01*
X50851Y20905D01*
X50818Y20855D01*
X50796Y20822D01*
X50779Y20800D01*
X50774Y20794D01*
X50718Y20739D01*
X50662Y20689D01*
X50607Y20644D01*
X50557Y20611D01*
X50507Y20583D01*
X50474Y20567D01*
X50452Y20556D01*
X50441Y20550D01*
X50368Y20522D01*
X50291Y20506D01*
X50218Y20489D01*
X50146Y20483D01*
X50091Y20478D01*
X50041Y20472D01*
X50002D01*
X49913Y20478D01*
X49830Y20483D01*
X49758Y20495D01*
X49691Y20511D01*
X49636Y20528D01*
X49597Y20539D01*
X49575Y20545D01*
X49564Y20550D01*
X49492Y20583D01*
X49430Y20622D01*
X49375Y20667D01*
X49325Y20706D01*
X49286Y20739D01*
X49258Y20767D01*
X49242Y20789D01*
X49236Y20794D01*
X49186Y20855D01*
X49142Y20928D01*
X49108Y20994D01*
X49081Y21055D01*
X49053Y21111D01*
X49036Y21155D01*
X49031Y21183D01*
X49025Y21194D01*
X49003Y21288D01*
X48981Y21383D01*
X48970Y21471D01*
X48964Y21560D01*
X48959Y21632D01*
X48953Y21693D01*
Y21716D01*
Y21732D01*
Y21738D01*
Y21743D01*
Y22515D01*
X48959Y22631D01*
X48964Y22737D01*
X48975Y22831D01*
X48986Y22909D01*
X49003Y22975D01*
X49014Y23025D01*
X49020Y23059D01*
X49025Y23070D01*
X49053Y23153D01*
X49086Y23231D01*
X49125Y23303D01*
X49158Y23358D01*
X49186Y23408D01*
X49214Y23442D01*
X49231Y23464D01*
X49236Y23469D01*
X49292Y23525D01*
X49347Y23575D01*
X49403Y23614D01*
X49453Y23647D01*
X49503Y23675D01*
X49536Y23691D01*
X49558Y23702D01*
X49569Y23708D01*
X49641Y23736D01*
X49719Y23758D01*
X49791Y23769D01*
X49863Y23780D01*
X49919Y23786D01*
X49969Y23791D01*
X50008D01*
X50096Y23786D01*
D02*
G37*
G36*
X44646D02*
X44730Y23780D01*
X44802Y23764D01*
X44868Y23753D01*
X44924Y23736D01*
X44963Y23719D01*
X44985Y23714D01*
X44996Y23708D01*
X45068Y23675D01*
X45129Y23636D01*
X45185Y23597D01*
X45235Y23558D01*
X45274Y23525D01*
X45307Y23497D01*
X45323Y23475D01*
X45329Y23469D01*
X45373Y23408D01*
X45418Y23342D01*
X45451Y23275D01*
X45479Y23209D01*
X45507Y23153D01*
X45523Y23109D01*
X45529Y23081D01*
X45534Y23075D01*
Y23070D01*
X45557Y22975D01*
X45573Y22881D01*
X45590Y22787D01*
X45595Y22704D01*
X45601Y22626D01*
X45606Y22570D01*
Y22548D01*
Y22532D01*
Y22520D01*
Y22515D01*
Y21743D01*
X45601Y21632D01*
X45595Y21527D01*
X45584Y21433D01*
X45568Y21355D01*
X45557Y21288D01*
X45545Y21238D01*
X45540Y21205D01*
X45534Y21200D01*
Y21194D01*
X45501Y21111D01*
X45468Y21033D01*
X45434Y20961D01*
X45401Y20905D01*
X45368Y20855D01*
X45346Y20822D01*
X45329Y20800D01*
X45323Y20794D01*
X45268Y20739D01*
X45212Y20689D01*
X45157Y20644D01*
X45107Y20611D01*
X45057Y20583D01*
X45024Y20567D01*
X45002Y20556D01*
X44990Y20550D01*
X44918Y20522D01*
X44841Y20506D01*
X44768Y20489D01*
X44696Y20483D01*
X44641Y20478D01*
X44591Y20472D01*
X44552D01*
X44463Y20478D01*
X44380Y20483D01*
X44308Y20495D01*
X44241Y20511D01*
X44186Y20528D01*
X44147Y20539D01*
X44125Y20545D01*
X44113Y20550D01*
X44041Y20583D01*
X43980Y20622D01*
X43925Y20667D01*
X43875Y20706D01*
X43836Y20739D01*
X43808Y20767D01*
X43792Y20789D01*
X43786Y20794D01*
X43736Y20855D01*
X43692Y20928D01*
X43658Y20994D01*
X43631Y21055D01*
X43603Y21111D01*
X43586Y21155D01*
X43581Y21183D01*
X43575Y21194D01*
X43553Y21288D01*
X43531Y21383D01*
X43520Y21471D01*
X43514Y21560D01*
X43509Y21632D01*
X43503Y21693D01*
Y21716D01*
Y21732D01*
Y21738D01*
Y21743D01*
Y22515D01*
X43509Y22631D01*
X43514Y22737D01*
X43525Y22831D01*
X43536Y22909D01*
X43553Y22975D01*
X43564Y23025D01*
X43570Y23059D01*
X43575Y23070D01*
X43603Y23153D01*
X43636Y23231D01*
X43675Y23303D01*
X43708Y23358D01*
X43736Y23408D01*
X43764Y23442D01*
X43780Y23464D01*
X43786Y23469D01*
X43842Y23525D01*
X43897Y23575D01*
X43953Y23614D01*
X44003Y23647D01*
X44052Y23675D01*
X44086Y23691D01*
X44108Y23702D01*
X44119Y23708D01*
X44191Y23736D01*
X44269Y23758D01*
X44341Y23769D01*
X44413Y23780D01*
X44469Y23786D01*
X44519Y23791D01*
X44557D01*
X44646Y23786D01*
D02*
G37*
%LPC*%
G36*
X48405Y18357D02*
X47627D01*
Y18335D01*
X47449D01*
Y18313D01*
X47338D01*
Y18291D01*
X47227D01*
Y18269D01*
X47161D01*
Y18246D01*
X47072D01*
Y18224D01*
X46983D01*
Y18202D01*
X46916D01*
Y18180D01*
X46850D01*
Y18157D01*
X46805D01*
Y18135D01*
X46738D01*
Y18113D01*
X46672D01*
Y18091D01*
X46627D01*
Y18068D01*
X46561D01*
Y18046D01*
X46516D01*
Y18024D01*
X46472D01*
Y18002D01*
X46428D01*
Y17980D01*
X46383D01*
Y17957D01*
X46316D01*
Y17935D01*
X46294D01*
Y17913D01*
X46250D01*
Y17891D01*
X46205D01*
Y17869D01*
X46161D01*
Y17846D01*
X46139D01*
Y17824D01*
X46094D01*
Y17802D01*
X46050D01*
Y17780D01*
X46005D01*
Y17758D01*
X45983D01*
Y17735D01*
X45939D01*
Y17713D01*
X45916D01*
Y17691D01*
X45872D01*
Y17669D01*
X45850D01*
Y17646D01*
X45805D01*
Y17624D01*
X45783D01*
Y17602D01*
X45761D01*
Y17580D01*
X45739D01*
Y17558D01*
X45694D01*
Y17535D01*
X45672D01*
Y17513D01*
X45650D01*
Y17491D01*
X45605D01*
Y17469D01*
X45583D01*
Y17446D01*
X45561D01*
Y17424D01*
X45539D01*
Y17402D01*
X45516D01*
Y17380D01*
X45494D01*
Y17357D01*
X45472D01*
Y17335D01*
X45450D01*
Y17313D01*
X45428D01*
Y17291D01*
X45405D01*
Y17269D01*
X45383D01*
Y17246D01*
X45361D01*
Y17224D01*
Y17202D01*
X45339D01*
Y17180D01*
X45316D01*
Y17158D01*
X45294D01*
Y17135D01*
Y17113D01*
X45272D01*
Y17091D01*
X45250D01*
Y17069D01*
Y17047D01*
X45228D01*
Y17024D01*
Y17002D01*
X45205D01*
Y16980D01*
X45183D01*
Y16958D01*
X45117D01*
Y16935D01*
X45072D01*
Y16913D01*
X44983D01*
Y16891D01*
X44939D01*
Y16869D01*
X44872D01*
Y16847D01*
X44805D01*
Y16824D01*
X44761D01*
Y16802D01*
X44694D01*
Y16780D01*
X44650D01*
Y16758D01*
X44583D01*
Y16735D01*
X44539D01*
Y16713D01*
X44472D01*
Y16691D01*
X44428D01*
Y16669D01*
X44383D01*
Y16646D01*
X44339D01*
Y16624D01*
X44295D01*
Y16602D01*
X44228D01*
Y16580D01*
X44183D01*
Y16558D01*
X44139D01*
Y16535D01*
X44094D01*
Y16513D01*
X44072D01*
Y16491D01*
X44028D01*
Y16469D01*
X43983D01*
Y16447D01*
X43939D01*
Y16424D01*
X43894D01*
Y16402D01*
X43872D01*
Y16380D01*
X43828D01*
Y16358D01*
X43806D01*
Y16335D01*
X43761D01*
Y16313D01*
X43739D01*
Y16291D01*
X43717D01*
Y16269D01*
X43672D01*
Y16247D01*
X43650D01*
Y16224D01*
X43628D01*
Y16202D01*
X43606D01*
Y16180D01*
X43584D01*
Y16158D01*
X43561D01*
Y16136D01*
X43539D01*
Y16113D01*
X43517D01*
Y16091D01*
X43495D01*
Y16069D01*
X43472D01*
Y16047D01*
X43450D01*
Y16024D01*
X43428D01*
Y16002D01*
Y15980D01*
X43406D01*
Y15958D01*
X43383D01*
Y15935D01*
Y15913D01*
X43361D01*
Y15891D01*
Y15869D01*
X43339D01*
Y15847D01*
Y15824D01*
X43317D01*
Y15802D01*
Y15780D01*
X43295D01*
Y15758D01*
Y15736D01*
Y15713D01*
Y15691D01*
X43272D01*
Y15669D01*
Y15647D01*
Y15624D01*
Y15602D01*
Y15580D01*
Y15558D01*
X43250D01*
Y15536D01*
Y15513D01*
Y15491D01*
Y15469D01*
Y15447D01*
Y15425D01*
Y15402D01*
X43272D01*
Y15380D01*
Y15358D01*
Y15336D01*
Y15313D01*
Y15291D01*
Y15269D01*
Y15247D01*
X43295D01*
Y15225D01*
Y15202D01*
Y15180D01*
Y15158D01*
Y15136D01*
X43317D01*
Y15113D01*
Y15091D01*
Y15069D01*
X43295D01*
Y15047D01*
X43250D01*
Y15024D01*
X43228D01*
Y15002D01*
X43206D01*
Y14980D01*
X43183D01*
Y14958D01*
X43139D01*
Y14936D01*
X43117D01*
Y14913D01*
X43095D01*
Y14891D01*
X43072D01*
Y14869D01*
X43050D01*
Y14847D01*
X43028D01*
Y14825D01*
X43006D01*
Y14802D01*
X42984D01*
Y14780D01*
X42961D01*
Y14758D01*
X42939D01*
Y14736D01*
X42917D01*
Y14714D01*
X42895D01*
Y14691D01*
Y14669D01*
X42872D01*
Y14647D01*
X42850D01*
Y14625D01*
X42828D01*
Y14602D01*
X42806D01*
Y14580D01*
Y14558D01*
X42784D01*
Y14536D01*
X42761D01*
Y14514D01*
X42739D01*
Y14491D01*
Y14469D01*
X42717D01*
Y14447D01*
X42695D01*
Y14425D01*
Y14402D01*
X42673D01*
Y14380D01*
X42650D01*
Y14358D01*
Y14336D01*
X42628D01*
Y14314D01*
Y14291D01*
X42606D01*
Y14269D01*
Y14247D01*
X42584D01*
Y14225D01*
Y14202D01*
X42561D01*
Y14180D01*
X42539D01*
Y14158D01*
Y14136D01*
Y14114D01*
X42517D01*
Y14091D01*
Y14069D01*
X42495D01*
Y14047D01*
Y14025D01*
Y14003D01*
X42472D01*
Y13980D01*
Y13958D01*
X42450D01*
Y13936D01*
Y13914D01*
Y13891D01*
X42428D01*
Y13869D01*
Y13847D01*
Y13825D01*
X42406D01*
Y13803D01*
Y13780D01*
Y13758D01*
X42384D01*
Y13736D01*
Y13714D01*
Y13691D01*
Y13669D01*
X42361D01*
Y13647D01*
Y13625D01*
Y13602D01*
Y13580D01*
X42339D01*
Y13558D01*
Y13536D01*
Y13514D01*
Y13491D01*
Y13469D01*
Y13447D01*
X42317D01*
Y13425D01*
Y13403D01*
Y13380D01*
Y13358D01*
Y13336D01*
Y13314D01*
Y13292D01*
Y13269D01*
Y13247D01*
Y13225D01*
Y13203D01*
Y13180D01*
Y13158D01*
Y13136D01*
Y13114D01*
Y13092D01*
Y13069D01*
Y13047D01*
Y13025D01*
Y13003D01*
Y12980D01*
Y12958D01*
Y12936D01*
Y12914D01*
Y12892D01*
Y12869D01*
Y12847D01*
Y12825D01*
Y12803D01*
Y12780D01*
Y12758D01*
X42339D01*
Y12736D01*
Y12714D01*
Y12692D01*
Y12669D01*
Y12647D01*
X42361D01*
Y12625D01*
Y12603D01*
Y12581D01*
X42384D01*
Y12558D01*
Y12536D01*
Y12514D01*
X42406D01*
Y12492D01*
Y12469D01*
X42428D01*
Y12447D01*
Y12425D01*
X42450D01*
Y12403D01*
X42472D01*
Y12381D01*
X42495D01*
Y12358D01*
X42517D01*
Y12336D01*
X42561D01*
Y12314D01*
X42606D01*
Y12292D01*
X42673D01*
Y12269D01*
X42784D01*
Y12247D01*
X42806D01*
Y12269D01*
X42961D01*
Y12292D01*
X43072D01*
Y12314D01*
X43139D01*
Y12336D01*
X43228D01*
Y12358D01*
X43295D01*
Y12381D01*
X43339D01*
Y12403D01*
X43406D01*
Y12425D01*
X43450D01*
Y12447D01*
X43517D01*
Y12469D01*
X43561D01*
Y12492D01*
X43606D01*
Y12514D01*
X43672D01*
Y12536D01*
X43717D01*
Y12558D01*
X43783D01*
Y12581D01*
X43828D01*
Y12603D01*
X43872D01*
Y12625D01*
X43939D01*
Y12647D01*
X43983D01*
Y12669D01*
X44050D01*
Y12692D01*
X44094D01*
Y12714D01*
X44139D01*
Y12736D01*
X44206D01*
Y12758D01*
X44250D01*
Y12780D01*
X44317D01*
Y12803D01*
X44361D01*
Y12825D01*
X44428D01*
Y12847D01*
X44472D01*
Y12869D01*
X44539D01*
Y12892D01*
X44628D01*
Y12869D01*
X44650D01*
Y12847D01*
X44672D01*
Y12825D01*
X44694D01*
Y12803D01*
X44717D01*
Y12780D01*
Y12758D01*
X44761D01*
Y12736D01*
X44783D01*
Y12714D01*
X44805D01*
Y12692D01*
X44828D01*
Y12669D01*
X44850D01*
Y12647D01*
X44872D01*
Y12625D01*
X44917D01*
Y12603D01*
X44939D01*
Y12581D01*
X44983D01*
Y12558D01*
X45028D01*
Y12536D01*
X45072D01*
Y12514D01*
X45139D01*
Y12492D01*
X45205D01*
Y12469D01*
X45605D01*
Y12492D01*
X45694D01*
Y12514D01*
X45783D01*
Y12536D01*
X45828D01*
Y12558D01*
X45916D01*
Y12581D01*
X45961D01*
Y12603D01*
X46027D01*
Y12625D01*
X46072D01*
Y12647D01*
X46139D01*
Y12669D01*
X46183D01*
Y12692D01*
X46227D01*
Y12714D01*
X46294D01*
Y12736D01*
X46339D01*
Y12758D01*
X46405D01*
Y12780D01*
X46450D01*
Y12803D01*
X46494D01*
Y12825D01*
X46561D01*
Y12847D01*
X46605D01*
Y12869D01*
X46672D01*
Y12892D01*
X46716D01*
Y12869D01*
X46761D01*
Y12847D01*
X46805D01*
Y12825D01*
X46872D01*
Y12803D01*
X46916D01*
Y12780D01*
X46983D01*
Y12758D01*
X47072D01*
Y12736D01*
X47139D01*
Y12714D01*
X47227D01*
Y12692D01*
X47316D01*
Y12669D01*
X47449D01*
Y12647D01*
X47583D01*
Y12625D01*
X47916D01*
Y12603D01*
X47961D01*
Y12625D01*
X48294D01*
Y12647D01*
X48427D01*
Y12669D01*
X48538D01*
Y12692D01*
X48627D01*
Y12714D01*
X48716D01*
Y12736D01*
X48760D01*
Y12758D01*
X48827D01*
Y12780D01*
X48894D01*
Y12803D01*
X48938D01*
Y12825D01*
X48983D01*
Y12847D01*
X49027D01*
Y12869D01*
X49138D01*
Y12847D01*
X49183D01*
Y12825D01*
X49249D01*
Y12803D01*
X49294D01*
Y12780D01*
X49338D01*
Y12758D01*
X49405D01*
Y12736D01*
X49449D01*
Y12714D01*
X49516D01*
Y12692D01*
X49560D01*
Y12669D01*
X49627D01*
Y12647D01*
X49671D01*
Y12625D01*
X49738D01*
Y12603D01*
X49805D01*
Y12581D01*
X49849D01*
Y12558D01*
X49916D01*
Y12536D01*
X49983D01*
Y12514D01*
X50071D01*
Y12492D01*
X50160D01*
Y12469D01*
X50271D01*
Y12447D01*
X50694D01*
Y12469D01*
X50782D01*
Y12492D01*
X50849D01*
Y12514D01*
X50916D01*
Y12536D01*
X50960D01*
Y12558D01*
X51004D01*
Y12581D01*
X51027D01*
Y12603D01*
X51071D01*
Y12625D01*
X51093D01*
Y12647D01*
X51138D01*
Y12669D01*
X51160D01*
Y12692D01*
X51182D01*
Y12714D01*
X51205D01*
Y12736D01*
X51249D01*
Y12758D01*
X51271D01*
Y12780D01*
X51293D01*
Y12803D01*
X51316D01*
Y12825D01*
X51360D01*
Y12803D01*
X51427D01*
Y12780D01*
X51493D01*
Y12758D01*
X51538D01*
Y12736D01*
X51604D01*
Y12714D01*
X51649D01*
Y12692D01*
X51693D01*
Y12669D01*
X51760D01*
Y12647D01*
X51804D01*
Y12625D01*
X51871D01*
Y12603D01*
X51916D01*
Y12581D01*
X51960D01*
Y12558D01*
X52027D01*
Y12536D01*
X52071D01*
Y12514D01*
X52115D01*
Y12492D01*
X52182D01*
Y12469D01*
X52227D01*
Y12447D01*
X52293D01*
Y12425D01*
X52338D01*
Y12403D01*
X52382D01*
Y12381D01*
X52426D01*
Y12358D01*
X52493D01*
Y12336D01*
X52560D01*
Y12314D01*
X52604D01*
Y12292D01*
X52693D01*
Y12269D01*
X52738D01*
Y12247D01*
X52849D01*
Y12225D01*
X53204D01*
Y12247D01*
X53271D01*
Y12269D01*
X53315D01*
Y12292D01*
X53338D01*
Y12314D01*
X53382D01*
Y12336D01*
X53404D01*
Y12358D01*
X53426D01*
Y12381D01*
Y12403D01*
X53449D01*
Y12425D01*
X53471D01*
Y12447D01*
Y12469D01*
X53493D01*
Y12492D01*
Y12514D01*
Y12536D01*
X53515D01*
Y12558D01*
Y12581D01*
Y12603D01*
X53537D01*
Y12625D01*
Y12647D01*
Y12669D01*
Y12692D01*
X53560D01*
Y12714D01*
Y12736D01*
Y12758D01*
Y12780D01*
Y12803D01*
X53582D01*
Y12825D01*
Y12847D01*
Y12869D01*
Y12892D01*
Y12914D01*
Y12936D01*
Y12958D01*
Y12980D01*
Y13003D01*
Y13025D01*
Y13047D01*
Y13069D01*
Y13092D01*
Y13114D01*
Y13136D01*
Y13158D01*
Y13180D01*
Y13203D01*
Y13225D01*
Y13247D01*
Y13269D01*
Y13292D01*
Y13314D01*
Y13336D01*
Y13358D01*
Y13380D01*
Y13403D01*
Y13425D01*
X53560D01*
Y13447D01*
Y13469D01*
Y13491D01*
Y13514D01*
Y13536D01*
Y13558D01*
X53537D01*
Y13580D01*
Y13602D01*
Y13625D01*
Y13647D01*
Y13669D01*
X53515D01*
Y13691D01*
Y13714D01*
Y13736D01*
Y13758D01*
X53493D01*
Y13780D01*
Y13803D01*
Y13825D01*
X53471D01*
Y13847D01*
Y13869D01*
Y13891D01*
X53449D01*
Y13914D01*
Y13936D01*
Y13958D01*
X53426D01*
Y13980D01*
Y14003D01*
Y14025D01*
X53404D01*
Y14047D01*
Y14069D01*
X53382D01*
Y14091D01*
Y14114D01*
X53360D01*
Y14136D01*
Y14158D01*
Y14180D01*
X53338D01*
Y14202D01*
X53315D01*
Y14225D01*
Y14247D01*
X53293D01*
Y14269D01*
Y14291D01*
X53271D01*
Y14314D01*
Y14336D01*
X53249D01*
Y14358D01*
Y14380D01*
X53226D01*
Y14402D01*
X53204D01*
Y14425D01*
Y14447D01*
X53182D01*
Y14469D01*
X53160D01*
Y14491D01*
Y14514D01*
X53137D01*
Y14536D01*
X53115D01*
Y14558D01*
X53093D01*
Y14580D01*
Y14602D01*
X53071D01*
Y14625D01*
X53049D01*
Y14647D01*
X53026D01*
Y14669D01*
X53004D01*
Y14691D01*
X52982D01*
Y14714D01*
X52960D01*
Y14736D01*
Y14758D01*
X52938D01*
Y14780D01*
X52915D01*
Y14802D01*
X52893D01*
Y14825D01*
X52871D01*
Y14847D01*
X52826D01*
Y14869D01*
X52804D01*
Y14891D01*
X52782D01*
Y14913D01*
X52760D01*
Y14936D01*
X52738D01*
Y14958D01*
X52715D01*
Y14980D01*
X52671D01*
Y15002D01*
X52649D01*
Y15024D01*
Y15047D01*
X52671D01*
Y15069D01*
Y15091D01*
X52693D01*
Y15113D01*
Y15136D01*
Y15158D01*
X52715D01*
Y15180D01*
Y15202D01*
Y15225D01*
X52738D01*
Y15247D01*
Y15269D01*
Y15291D01*
X52760D01*
Y15313D01*
Y15336D01*
Y15358D01*
Y15380D01*
Y15402D01*
Y15425D01*
X52782D01*
Y15447D01*
Y15469D01*
Y15491D01*
Y15513D01*
Y15536D01*
Y15558D01*
X52760D01*
Y15580D01*
Y15602D01*
Y15624D01*
Y15647D01*
Y15669D01*
X52738D01*
Y15691D01*
Y15713D01*
Y15736D01*
X52715D01*
Y15758D01*
Y15780D01*
X52693D01*
Y15802D01*
Y15824D01*
X52671D01*
Y15847D01*
Y15869D01*
X52649D01*
Y15891D01*
X52627D01*
Y15913D01*
Y15935D01*
X52604D01*
Y15958D01*
X52582D01*
Y15980D01*
X52560D01*
Y16002D01*
X52538D01*
Y16024D01*
X52515D01*
Y16047D01*
X52493D01*
Y16069D01*
X52471D01*
Y16091D01*
X52449D01*
Y16113D01*
X52404D01*
Y16136D01*
X52382D01*
Y16158D01*
X52360D01*
Y16180D01*
X52315D01*
Y16202D01*
X52293D01*
Y16224D01*
X52249D01*
Y16247D01*
X52227D01*
Y16269D01*
X52182D01*
Y16291D01*
X52160D01*
Y16313D01*
X52115D01*
Y16335D01*
X52071D01*
Y16358D01*
X52027D01*
Y16380D01*
X51982D01*
Y16402D01*
X51938D01*
Y16424D01*
X51893D01*
Y16447D01*
X51849D01*
Y16469D01*
X51804D01*
Y16491D01*
X51760D01*
Y16513D01*
X51715D01*
Y16535D01*
X51671D01*
Y16558D01*
X51627D01*
Y16580D01*
X51582D01*
Y16602D01*
X51516D01*
Y16624D01*
X51471D01*
Y16646D01*
X51427D01*
Y16669D01*
X51360D01*
Y16691D01*
X51316D01*
Y16713D01*
X51249D01*
Y16735D01*
X51205D01*
Y16758D01*
X51138D01*
Y16780D01*
X51093D01*
Y16802D01*
X51027D01*
Y16824D01*
X50982D01*
Y16847D01*
X50938D01*
Y16869D01*
X50893D01*
Y16891D01*
Y16913D01*
Y16935D01*
X50871D01*
Y16958D01*
Y16980D01*
Y17002D01*
X50849D01*
Y17024D01*
Y17047D01*
X50827D01*
Y17069D01*
Y17091D01*
X50805D01*
Y17113D01*
Y17135D01*
X50782D01*
Y17158D01*
X50760D01*
Y17180D01*
Y17202D01*
X50738D01*
Y17224D01*
X50716D01*
Y17246D01*
Y17269D01*
X50694D01*
Y17291D01*
X50671D01*
Y17313D01*
X50649D01*
Y17335D01*
X50627D01*
Y17357D01*
X50605D01*
Y17380D01*
X50582D01*
Y17402D01*
X50560D01*
Y17424D01*
X50538D01*
Y17446D01*
X50516D01*
Y17469D01*
X50494D01*
Y17491D01*
X50471D01*
Y17513D01*
X50449D01*
Y17535D01*
X50405D01*
Y17558D01*
X50382D01*
Y17580D01*
X50360D01*
Y17602D01*
X50316D01*
Y17624D01*
X50293D01*
Y17646D01*
X50271D01*
Y17669D01*
X50227D01*
Y17691D01*
X50205D01*
Y17713D01*
X50160D01*
Y17735D01*
X50138D01*
Y17758D01*
X50094D01*
Y17780D01*
X50049D01*
Y17802D01*
X50005D01*
Y17824D01*
X49983D01*
Y17846D01*
X49938D01*
Y17869D01*
X49894D01*
Y17891D01*
X49849D01*
Y17913D01*
X49805D01*
Y17935D01*
X49760D01*
Y17957D01*
X49716D01*
Y17980D01*
X49671D01*
Y18002D01*
X49627D01*
Y18024D01*
X49560D01*
Y18046D01*
X49516D01*
Y18068D01*
X49449D01*
Y18091D01*
X49405D01*
Y18113D01*
X49338D01*
Y18135D01*
X49272D01*
Y18157D01*
X49227D01*
Y18180D01*
X49138D01*
Y18202D01*
X49071D01*
Y18224D01*
X48983D01*
Y18246D01*
X48894D01*
Y18269D01*
X48805D01*
Y18291D01*
X48694D01*
Y18313D01*
X48583D01*
Y18335D01*
X48405D01*
Y18357D01*
D02*
G37*
G36*
X25824Y32646D02*
X25618D01*
X25546Y32641D01*
X25485Y32635D01*
X25424Y32624D01*
X25374Y32613D01*
X25335Y32596D01*
X25308Y32585D01*
X25285Y32580D01*
X25280Y32574D01*
X25180Y32513D01*
X25141Y32480D01*
X25102Y32447D01*
X25074Y32419D01*
X25052Y32397D01*
X25041Y32380D01*
X25036Y32374D01*
X24969Y32274D01*
X24947Y32219D01*
X24925Y32169D01*
X24908Y32130D01*
X24897Y32097D01*
X24886Y32069D01*
Y32064D01*
X24858Y31925D01*
X24847Y31864D01*
X24841Y31803D01*
X24836Y31747D01*
Y31708D01*
Y31681D01*
Y31670D01*
Y31398D01*
Y31314D01*
X24847Y31237D01*
X24852Y31170D01*
X24863Y31109D01*
X24875Y31059D01*
X24880Y31020D01*
X24891Y30998D01*
Y30987D01*
X24913Y30920D01*
X24936Y30859D01*
X24958Y30809D01*
X24986Y30765D01*
X25008Y30726D01*
X25024Y30698D01*
X25036Y30682D01*
X25041Y30676D01*
X25119Y30593D01*
X25158Y30565D01*
X25191Y30537D01*
X25224Y30515D01*
X25252Y30498D01*
X25269Y30493D01*
X25274Y30487D01*
X25330Y30465D01*
X25380Y30448D01*
X25435Y30437D01*
X25480Y30432D01*
X25524Y30426D01*
X25557Y30421D01*
X25824D01*
Y32646D01*
D02*
G37*
G36*
X39646Y27640D02*
X39163D01*
X39069Y27634D01*
X39030Y27629D01*
X38996Y27617D01*
X38974Y27612D01*
X38952Y27601D01*
X38941Y27595D01*
X38935D01*
X38869Y27556D01*
X38813Y27523D01*
X38780Y27490D01*
X38774Y27484D01*
X38769Y27479D01*
X38724Y27423D01*
X38691Y27368D01*
X38680Y27340D01*
X38675Y27323D01*
X38669Y27312D01*
Y27307D01*
X38647Y27235D01*
X38641Y27168D01*
X38636Y27140D01*
Y27118D01*
Y27101D01*
Y27096D01*
X38641Y27029D01*
X38652Y26968D01*
X38658Y26940D01*
X38663Y26924D01*
X38669Y26913D01*
Y26907D01*
X38697Y26846D01*
X38730Y26796D01*
X38758Y26763D01*
X38763Y26757D01*
X38769Y26752D01*
X38824Y26707D01*
X38874Y26674D01*
X38902Y26657D01*
X38919Y26646D01*
X38930Y26641D01*
X38935D01*
X39013Y26618D01*
X39085Y26607D01*
X39113Y26602D01*
X39646D01*
Y27640D01*
D02*
G37*
G36*
X36965D02*
X36760D01*
X36688Y27634D01*
X36627Y27629D01*
X36566Y27617D01*
X36516Y27606D01*
X36477Y27590D01*
X36449Y27579D01*
X36427Y27573D01*
X36421Y27568D01*
X36321Y27507D01*
X36283Y27473D01*
X36244Y27440D01*
X36216Y27412D01*
X36194Y27390D01*
X36183Y27373D01*
X36177Y27368D01*
X36110Y27268D01*
X36088Y27212D01*
X36066Y27162D01*
X36049Y27124D01*
X36038Y27090D01*
X36027Y27062D01*
Y27057D01*
X35999Y26918D01*
X35988Y26857D01*
X35983Y26796D01*
X35977Y26741D01*
Y26702D01*
Y26674D01*
Y26663D01*
Y26391D01*
Y26308D01*
X35988Y26230D01*
X35994Y26163D01*
X36005Y26102D01*
X36016Y26052D01*
X36022Y26014D01*
X36033Y25991D01*
Y25980D01*
X36055Y25914D01*
X36077Y25853D01*
X36099Y25803D01*
X36127Y25758D01*
X36149Y25719D01*
X36166Y25692D01*
X36177Y25675D01*
X36183Y25670D01*
X36260Y25586D01*
X36299Y25559D01*
X36332Y25531D01*
X36366Y25508D01*
X36393Y25492D01*
X36410Y25486D01*
X36416Y25481D01*
X36471Y25459D01*
X36521Y25442D01*
X36577Y25431D01*
X36621Y25425D01*
X36665Y25420D01*
X36699Y25414D01*
X36965D01*
Y27640D01*
D02*
G37*
G36*
X50041Y23292D02*
X50008D01*
X49935Y23286D01*
X49869Y23270D01*
X49813Y23242D01*
X49769Y23214D01*
X49736Y23181D01*
X49714Y23159D01*
X49697Y23136D01*
X49691Y23131D01*
X49652Y23064D01*
X49625Y22992D01*
X49608Y22914D01*
X49591Y22837D01*
X49580Y22765D01*
X49575Y22709D01*
Y22687D01*
Y22670D01*
Y22659D01*
Y22654D01*
X50435Y22010D01*
Y22615D01*
X50429Y22737D01*
X50418Y22842D01*
X50402Y22926D01*
X50380Y22998D01*
X50363Y23053D01*
X50346Y23092D01*
X50335Y23120D01*
X50330Y23125D01*
X50285Y23181D01*
X50235Y23220D01*
X50180Y23253D01*
X50130Y23270D01*
X50080Y23281D01*
X50041Y23292D01*
D02*
G37*
G36*
X49575Y22232D02*
Y21649D01*
X49580Y21527D01*
X49591Y21421D01*
X49608Y21333D01*
X49625Y21260D01*
X49647Y21205D01*
X49663Y21166D01*
X49675Y21138D01*
X49680Y21133D01*
X49725Y21077D01*
X49775Y21038D01*
X49830Y21005D01*
X49880Y20989D01*
X49930Y20978D01*
X49969Y20972D01*
X49991Y20966D01*
X50002D01*
X50074Y20972D01*
X50141Y20989D01*
X50196Y21016D01*
X50241Y21044D01*
X50274Y21066D01*
X50296Y21094D01*
X50313Y21111D01*
X50318Y21116D01*
X50352Y21183D01*
X50380Y21255D01*
X50402Y21338D01*
X50418Y21416D01*
X50424Y21483D01*
X50429Y21544D01*
X50435Y21560D01*
Y21577D01*
Y21588D01*
Y21594D01*
X49575Y22232D01*
D02*
G37*
G36*
X44591Y23292D02*
X44557D01*
X44485Y23286D01*
X44419Y23270D01*
X44363Y23242D01*
X44319Y23214D01*
X44286Y23181D01*
X44263Y23159D01*
X44247Y23136D01*
X44241Y23131D01*
X44202Y23064D01*
X44175Y22992D01*
X44158Y22914D01*
X44141Y22837D01*
X44130Y22765D01*
X44125Y22709D01*
Y22687D01*
Y22670D01*
Y22659D01*
Y22654D01*
X44985Y22010D01*
Y22615D01*
X44979Y22737D01*
X44968Y22842D01*
X44952Y22926D01*
X44929Y22998D01*
X44913Y23053D01*
X44896Y23092D01*
X44885Y23120D01*
X44879Y23125D01*
X44835Y23181D01*
X44785Y23220D01*
X44730Y23253D01*
X44680Y23270D01*
X44630Y23281D01*
X44591Y23292D01*
D02*
G37*
G36*
X44125Y22232D02*
Y21649D01*
X44130Y21527D01*
X44141Y21421D01*
X44158Y21333D01*
X44175Y21260D01*
X44197Y21205D01*
X44213Y21166D01*
X44225Y21138D01*
X44230Y21133D01*
X44275Y21077D01*
X44324Y21038D01*
X44380Y21005D01*
X44430Y20989D01*
X44480Y20978D01*
X44519Y20972D01*
X44541Y20966D01*
X44552D01*
X44624Y20972D01*
X44691Y20989D01*
X44746Y21016D01*
X44791Y21044D01*
X44824Y21066D01*
X44846Y21094D01*
X44863Y21111D01*
X44868Y21116D01*
X44902Y21183D01*
X44929Y21255D01*
X44952Y21338D01*
X44968Y21416D01*
X44974Y21483D01*
X44979Y21544D01*
X44985Y21560D01*
Y21577D01*
Y21588D01*
Y21594D01*
X44125Y22232D01*
D02*
G37*
%LPD*%
D10*
X4527Y27756D02*
X6496D01*
X4527Y25787D02*
Y27756D01*
Y11220D02*
Y13189D01*
Y11220D02*
X6496D01*
X19094D02*
X21063D01*
Y13189D01*
X19094Y27756D02*
X21063D01*
Y25787D02*
Y27756D01*
D11*
X23031Y27362D02*
G03*
X23031Y27362I-394J0D01*
G01*
D45*
X26358Y13583D02*
G03*
X26358Y13583I-492J0D01*
G01*
D46*
X50098Y41732D02*
G03*
X50098Y41732I-197J0D01*
G01*
D47*
X33169Y23031D02*
Y26378D01*
X27657D02*
X33169D01*
Y14567D02*
Y17913D01*
X27657Y14567D02*
X33169D01*
X36319Y34547D02*
Y35236D01*
X48130Y34547D02*
Y35236D01*
X36319Y41732D02*
Y42421D01*
X48130Y41732D02*
Y42421D01*
X36319Y34547D02*
X48130D01*
X36319Y42421D02*
X48130D01*
M02*
