G04*
G04 #@! TF.GenerationSoftware,Altium Limited,Altium Designer,20.1.14 (287)*
G04*
G04 Layer_Color=255*
%FSLAX25Y25*%
%MOIN*%
G70*
G04*
G04 #@! TF.SameCoordinates,393418DF-571C-4769-8AC5-FB63858C89C1*
G04*
G04*
G04 #@! TF.FilePolarity,Positive*
G04*
G01*
G75*
%ADD12R,0.15748X0.11811*%
%ADD13R,0.02756X0.01181*%
%ADD14R,0.02756X0.03937*%
%ADD24O,0.08661X0.04331*%
%ADD25O,0.10236X0.05118*%
G04:AMPARAMS|DCode=26|XSize=70.87mil|YSize=70.87mil|CornerRadius=8.86mil|HoleSize=0mil|Usage=FLASHONLY|Rotation=180.000|XOffset=0mil|YOffset=0mil|HoleType=Round|Shape=RoundedRectangle|*
%AMROUNDEDRECTD26*
21,1,0.07087,0.05315,0,0,180.0*
21,1,0.05315,0.07087,0,0,180.0*
1,1,0.01772,-0.02657,0.02657*
1,1,0.01772,0.02657,0.02657*
1,1,0.01772,0.02657,-0.02657*
1,1,0.01772,-0.02657,-0.02657*
%
%ADD26ROUNDEDRECTD26*%
%ADD27C,0.07087*%
D12*
X46850Y18504D02*
D03*
Y33465D02*
D03*
D13*
X29803Y33268D02*
D03*
Y31299D02*
D03*
Y29331D02*
D03*
Y27362D02*
D03*
Y25394D02*
D03*
Y23425D02*
D03*
Y19488D02*
D03*
Y17520D02*
D03*
Y15551D02*
D03*
Y13583D02*
D03*
Y11614D02*
D03*
Y9646D02*
D03*
X24685Y12598D02*
D03*
Y14567D02*
D03*
Y16535D02*
D03*
Y18504D02*
D03*
Y20472D02*
D03*
Y22441D02*
D03*
Y24409D02*
D03*
Y26378D02*
D03*
Y28346D02*
D03*
Y30315D02*
D03*
D14*
Y9252D02*
D03*
Y33661D02*
D03*
D24*
X28189Y38465D02*
D03*
Y4449D02*
D03*
D25*
X7087Y38465D02*
D03*
Y4449D02*
D03*
D26*
X49311Y6791D02*
D03*
D27*
X39311D02*
D03*
M02*
