G04*
G04 #@! TF.GenerationSoftware,Altium Limited,Altium Designer,20.1.14 (287)*
G04*
G04 Layer_Color=16711935*
%FSLAX25Y25*%
%MOIN*%
G70*
G04*
G04 #@! TF.SameCoordinates,393418DF-571C-4769-8AC5-FB63858C89C1*
G04*
G04*
G04 #@! TF.FilePolarity,Positive*
G04*
G01*
G75*
%ADD10C,0.00500*%
%ADD51C,0.00500*%
D10*
X55368Y40551D02*
G03*
X55368Y40554I-250J0D01*
G01*
X52758Y43163D02*
G03*
X52756Y43163I-2J-2612D01*
G01*
X55368Y40554D02*
G03*
X52758Y43163I-2612J-2D01*
G01*
X55368Y40551D02*
G03*
X55368Y40554I-2612J0D01*
G01*
X52758Y43163D02*
G03*
X52756Y43163I-2J-250D01*
G01*
X55368Y2358D02*
G03*
X55368Y2362I-250J5D01*
G01*
X55368Y2358D02*
G03*
X55368Y2362I-2612J5D01*
G01*
X52756Y-250D02*
G03*
X55368Y2358I0J2612D01*
G01*
X2362Y43163D02*
G03*
X2360Y43163I0J-250D01*
G01*
D02*
G03*
X-250Y40551I2J-2612D01*
G01*
X2362Y43163D02*
G03*
X2360Y43163I-0J-2612D01*
G01*
X-250Y1969D02*
G03*
X1968Y-250I2218J-0D01*
G01*
X55368Y2362D02*
Y40551D01*
X2362Y43163D02*
X52756Y43163D01*
X-250Y40551D02*
Y40551D01*
X-250Y1969D02*
X-250Y40551D01*
X1968Y-250D02*
X52756Y-250D01*
X1968Y-250D02*
X1968D01*
D51*
X55368Y40551D02*
D03*
X55368Y2362D02*
D03*
Y2362D02*
D03*
X-250Y40551D02*
D03*
X1968Y-250D02*
D03*
M02*
