G04*
G04 #@! TF.GenerationSoftware,Altium Limited,Altium Designer,20.1.14 (287)*
G04*
G04 Layer_Color=65535*
%FSLAX25Y25*%
%MOIN*%
G70*
G04*
G04 #@! TF.SameCoordinates,393418DF-571C-4769-8AC5-FB63858C89C1*
G04*
G04*
G04 #@! TF.FilePolarity,Positive*
G04*
G01*
G75*
%ADD10C,0.00500*%
%ADD11C,0.01000*%
G36*
X36591Y38636D02*
X36641Y38631D01*
X36697Y38620D01*
X36763Y38603D01*
X36824Y38581D01*
X36891Y38553D01*
X36896Y38548D01*
X36919Y38537D01*
X36952Y38520D01*
X36991Y38492D01*
X37035Y38459D01*
X37080Y38420D01*
X37130Y38376D01*
X37174Y38320D01*
X37180Y38315D01*
X37191Y38292D01*
X37213Y38259D01*
X37235Y38220D01*
X37263Y38165D01*
X37291Y38104D01*
X37318Y38037D01*
X37341Y37959D01*
Y37948D01*
X37352Y37926D01*
X37357Y37882D01*
X37368Y37826D01*
X37379Y37760D01*
X37385Y37682D01*
X37396Y37593D01*
Y37449D01*
X37391Y37410D01*
Y37366D01*
X37385Y37310D01*
X37368Y37199D01*
Y37194D01*
X37363Y37171D01*
X37357Y37144D01*
X37352Y37105D01*
X37341Y37060D01*
X37324Y37016D01*
X37291Y36911D01*
X37285Y36905D01*
X37279Y36888D01*
X37268Y36860D01*
X37252Y36827D01*
X37229Y36788D01*
X37202Y36744D01*
X37146Y36650D01*
X37141Y36644D01*
X37130Y36633D01*
X37113Y36611D01*
X37085Y36583D01*
X37024Y36516D01*
X36946Y36444D01*
X36941Y36439D01*
X36924Y36428D01*
X36902Y36411D01*
X36869Y36394D01*
X36830Y36372D01*
X36786Y36350D01*
X36686Y36305D01*
X36680D01*
X36658Y36300D01*
X36630Y36289D01*
X36586Y36283D01*
X36541Y36272D01*
X36486Y36261D01*
X36358Y36256D01*
Y36866D01*
X36364D01*
X36380D01*
X36408Y36872D01*
X36441Y36877D01*
X36525Y36888D01*
X36608Y36916D01*
X36614D01*
X36625Y36927D01*
X36647Y36938D01*
X36669Y36949D01*
X36724Y36994D01*
X36780Y37049D01*
Y37055D01*
X36791Y37066D01*
X36802Y37082D01*
X36819Y37105D01*
X36852Y37171D01*
X36880Y37249D01*
Y37255D01*
X36885Y37271D01*
X36891Y37293D01*
Y37327D01*
X36896Y37360D01*
X36902Y37404D01*
X36908Y37504D01*
Y37549D01*
X36902Y37582D01*
X36896Y37654D01*
X36880Y37726D01*
Y37732D01*
X36874Y37743D01*
X36869Y37760D01*
X36858Y37782D01*
X36836Y37832D01*
X36802Y37887D01*
Y37893D01*
X36791Y37898D01*
X36763Y37926D01*
X36724Y37959D01*
X36674Y37987D01*
X36669D01*
X36663Y37993D01*
X36630Y38009D01*
X36580Y38021D01*
X36519Y38026D01*
X36514D01*
X36503D01*
X36486D01*
X36464Y38021D01*
X36414Y38015D01*
X36358Y37993D01*
X36353D01*
X36347Y37987D01*
X36308Y37971D01*
X36264Y37937D01*
X36214Y37893D01*
X36208Y37887D01*
X36203Y37882D01*
X36192Y37865D01*
X36175Y37843D01*
X36136Y37782D01*
X36097Y37704D01*
Y37699D01*
X36086Y37682D01*
X36075Y37660D01*
X36064Y37626D01*
X36047Y37582D01*
X36031Y37532D01*
X36009Y37477D01*
X35992Y37416D01*
Y37404D01*
X35981Y37382D01*
X35970Y37338D01*
X35953Y37288D01*
X35931Y37227D01*
X35909Y37155D01*
X35853Y37010D01*
X35848Y37005D01*
X35836Y36977D01*
X35820Y36944D01*
X35792Y36899D01*
X35764Y36844D01*
X35726Y36788D01*
X35642Y36672D01*
X35637Y36666D01*
X35620Y36650D01*
X35592Y36622D01*
X35559Y36589D01*
X35520Y36550D01*
X35470Y36511D01*
X35415Y36472D01*
X35359Y36439D01*
X35354Y36433D01*
X35331Y36428D01*
X35293Y36411D01*
X35248Y36400D01*
X35193Y36383D01*
X35132Y36367D01*
X35059Y36361D01*
X34982Y36356D01*
X34971D01*
X34949D01*
X34910Y36361D01*
X34860Y36367D01*
X34799Y36378D01*
X34738Y36389D01*
X34671Y36411D01*
X34610Y36439D01*
X34604Y36444D01*
X34582Y36455D01*
X34549Y36478D01*
X34510Y36500D01*
X34466Y36539D01*
X34421Y36577D01*
X34371Y36622D01*
X34327Y36677D01*
X34321Y36683D01*
X34310Y36705D01*
X34288Y36738D01*
X34260Y36783D01*
X34233Y36833D01*
X34205Y36894D01*
X34177Y36966D01*
X34149Y37038D01*
X34144Y37049D01*
X34138Y37077D01*
X34127Y37116D01*
X34116Y37177D01*
X34105Y37244D01*
X34094Y37321D01*
X34083Y37404D01*
Y37538D01*
X34088Y37588D01*
X34094Y37649D01*
X34099Y37721D01*
X34116Y37793D01*
X34133Y37876D01*
X34160Y37954D01*
X34166Y37965D01*
X34172Y37987D01*
X34188Y38026D01*
X34210Y38076D01*
X34244Y38137D01*
X34277Y38192D01*
X34316Y38254D01*
X34366Y38315D01*
X34371Y38320D01*
X34388Y38342D01*
X34416Y38370D01*
X34455Y38403D01*
X34499Y38442D01*
X34549Y38481D01*
X34610Y38520D01*
X34677Y38553D01*
X34682Y38559D01*
X34710Y38564D01*
X34743Y38581D01*
X34793Y38598D01*
X34854Y38609D01*
X34921Y38625D01*
X34998Y38631D01*
X35076Y38636D01*
Y38032D01*
X35071D01*
X35059D01*
X35037Y38026D01*
X35010D01*
X34943Y38009D01*
X34876Y37987D01*
X34871D01*
X34860Y37982D01*
X34843Y37976D01*
X34821Y37965D01*
X34771Y37932D01*
X34721Y37887D01*
X34715Y37882D01*
X34710Y37876D01*
X34682Y37843D01*
X34649Y37787D01*
X34621Y37721D01*
Y37715D01*
X34615Y37704D01*
X34610Y37682D01*
X34599Y37654D01*
X34593Y37621D01*
X34588Y37576D01*
X34582Y37482D01*
Y37438D01*
X34588Y37410D01*
X34593Y37338D01*
X34615Y37260D01*
Y37255D01*
X34621Y37244D01*
X34627Y37227D01*
X34638Y37205D01*
X34660Y37155D01*
X34699Y37099D01*
X34710Y37088D01*
X34732Y37060D01*
X34771Y37027D01*
X34826Y36999D01*
X34832D01*
X34837Y36994D01*
X34871Y36983D01*
X34926Y36972D01*
X34987Y36966D01*
X34993D01*
X35004D01*
X35021D01*
X35043Y36972D01*
X35093Y36983D01*
X35148Y37010D01*
X35154D01*
X35159Y37021D01*
X35193Y37044D01*
X35237Y37082D01*
X35282Y37138D01*
Y37144D01*
X35293Y37155D01*
X35304Y37171D01*
X35320Y37199D01*
X35337Y37227D01*
X35354Y37266D01*
X35392Y37349D01*
Y37354D01*
X35398Y37371D01*
X35409Y37399D01*
X35420Y37432D01*
X35431Y37477D01*
X35448Y37521D01*
X35481Y37632D01*
Y37643D01*
X35492Y37671D01*
X35504Y37710D01*
X35526Y37765D01*
X35548Y37826D01*
X35570Y37898D01*
X35637Y38037D01*
X35642Y38048D01*
X35653Y38070D01*
X35675Y38104D01*
X35698Y38148D01*
X35731Y38198D01*
X35770Y38254D01*
X35859Y38359D01*
X35864Y38365D01*
X35881Y38381D01*
X35909Y38403D01*
X35942Y38437D01*
X35986Y38470D01*
X36036Y38503D01*
X36092Y38537D01*
X36153Y38564D01*
X36158Y38570D01*
X36181Y38576D01*
X36214Y38587D01*
X36258Y38603D01*
X36314Y38620D01*
X36375Y38631D01*
X36441Y38636D01*
X36514Y38642D01*
X36525D01*
X36547D01*
X36591Y38636D01*
D02*
G37*
G36*
X36364Y35773D02*
X36430Y35767D01*
X36508Y35762D01*
X36586Y35745D01*
X36669Y35728D01*
X36752Y35701D01*
X36763Y35695D01*
X36786Y35689D01*
X36824Y35673D01*
X36874Y35645D01*
X36930Y35617D01*
X36991Y35584D01*
X37052Y35540D01*
X37107Y35490D01*
X37113Y35484D01*
X37130Y35467D01*
X37157Y35434D01*
X37191Y35395D01*
X37224Y35345D01*
X37263Y35284D01*
X37296Y35218D01*
X37329Y35146D01*
X37335Y35135D01*
X37341Y35112D01*
X37352Y35068D01*
X37363Y35012D01*
X37379Y34946D01*
X37391Y34863D01*
X37396Y34779D01*
X37402Y34685D01*
Y34646D01*
X37396Y34596D01*
X37391Y34541D01*
X37385Y34468D01*
X37368Y34396D01*
X37352Y34319D01*
X37329Y34241D01*
X37324Y34230D01*
X37313Y34208D01*
X37296Y34174D01*
X37274Y34124D01*
X37241Y34074D01*
X37202Y34019D01*
X37157Y33958D01*
X37107Y33902D01*
X37102Y33897D01*
X37080Y33880D01*
X37052Y33852D01*
X37007Y33825D01*
X36958Y33791D01*
X36896Y33753D01*
X36830Y33719D01*
X36752Y33686D01*
X36741Y33680D01*
X36713Y33675D01*
X36669Y33664D01*
X36614Y33653D01*
X36541Y33636D01*
X36458Y33625D01*
X36369Y33619D01*
X36269Y33614D01*
X34127D01*
Y34241D01*
X36269D01*
X36275D01*
X36281D01*
X36297D01*
X36319D01*
X36380Y34247D01*
X36447Y34258D01*
X36525Y34269D01*
X36602Y34285D01*
X36680Y34313D01*
X36747Y34352D01*
X36752Y34358D01*
X36769Y34374D01*
X36797Y34402D01*
X36824Y34435D01*
X36852Y34485D01*
X36880Y34541D01*
X36896Y34607D01*
X36902Y34685D01*
Y34724D01*
X36891Y34763D01*
X36880Y34813D01*
X36863Y34868D01*
X36836Y34924D01*
X36797Y34979D01*
X36747Y35029D01*
X36741Y35035D01*
X36719Y35046D01*
X36680Y35068D01*
X36625Y35090D01*
X36558Y35112D01*
X36475Y35135D01*
X36380Y35151D01*
X36269Y35157D01*
X34127D01*
Y35778D01*
X36269D01*
X36275D01*
X36281D01*
X36314D01*
X36364Y35773D01*
D02*
G37*
G36*
X36497Y33220D02*
X36552Y33214D01*
X36614Y33203D01*
X36686Y33192D01*
X36758Y33170D01*
X36824Y33142D01*
X36830Y33136D01*
X36852Y33125D01*
X36885Y33109D01*
X36930Y33086D01*
X36974Y33053D01*
X37024Y33014D01*
X37074Y32970D01*
X37124Y32915D01*
X37130Y32909D01*
X37141Y32887D01*
X37163Y32853D01*
X37191Y32815D01*
X37218Y32759D01*
X37246Y32698D01*
X37274Y32626D01*
X37302Y32548D01*
Y32537D01*
X37313Y32509D01*
X37318Y32465D01*
X37329Y32409D01*
X37341Y32337D01*
X37346Y32260D01*
X37357Y32171D01*
Y30894D01*
X34127D01*
Y32076D01*
X34133Y32138D01*
X34138Y32215D01*
X34149Y32293D01*
X34183Y32459D01*
Y32471D01*
X34194Y32498D01*
X34205Y32537D01*
X34221Y32587D01*
X34244Y32642D01*
X34271Y32704D01*
X34305Y32765D01*
X34343Y32826D01*
X34349Y32831D01*
X34366Y32853D01*
X34388Y32881D01*
X34421Y32915D01*
X34460Y32953D01*
X34505Y32992D01*
X34560Y33031D01*
X34621Y33064D01*
X34627Y33070D01*
X34649Y33075D01*
X34688Y33092D01*
X34732Y33109D01*
X34787Y33120D01*
X34854Y33136D01*
X34926Y33142D01*
X35010Y33148D01*
X35021D01*
X35048D01*
X35093Y33142D01*
X35148Y33131D01*
X35209Y33120D01*
X35276Y33098D01*
X35348Y33064D01*
X35420Y33026D01*
X35426Y33020D01*
X35448Y33003D01*
X35481Y32976D01*
X35520Y32937D01*
X35565Y32892D01*
X35609Y32831D01*
X35653Y32759D01*
X35692Y32681D01*
Y32687D01*
X35698Y32704D01*
X35709Y32731D01*
X35720Y32765D01*
X35753Y32842D01*
X35798Y32920D01*
X35803Y32926D01*
X35809Y32937D01*
X35825Y32959D01*
X35848Y32981D01*
X35903Y33037D01*
X35970Y33092D01*
X35975Y33098D01*
X35986Y33103D01*
X36003Y33114D01*
X36031Y33131D01*
X36097Y33164D01*
X36181Y33192D01*
X36186D01*
X36197Y33198D01*
X36219Y33203D01*
X36253Y33209D01*
X36286Y33214D01*
X36325Y33220D01*
X36414Y33225D01*
X36425D01*
X36452D01*
X36497Y33220D01*
D02*
G37*
G36*
X37357Y29562D02*
Y28930D01*
X34127Y27953D01*
Y28641D01*
X36458Y29246D01*
X34127Y29856D01*
Y30545D01*
X37357Y29562D01*
D02*
G37*
G36*
X35997Y21949D02*
X36081Y21943D01*
X36169Y21932D01*
X36269Y21910D01*
X36375Y21888D01*
X36480Y21854D01*
X36486D01*
X36491Y21849D01*
X36525Y21838D01*
X36575Y21816D01*
X36641Y21782D01*
X36713Y21743D01*
X36791Y21693D01*
X36869Y21638D01*
X36946Y21571D01*
X36958Y21566D01*
X36980Y21538D01*
X37013Y21499D01*
X37058Y21449D01*
X37107Y21383D01*
X37157Y21310D01*
X37207Y21227D01*
X37252Y21133D01*
X37257Y21122D01*
X37268Y21089D01*
X37285Y21039D01*
X37302Y20966D01*
X37324Y20883D01*
X37341Y20789D01*
X37352Y20683D01*
X37357Y20572D01*
Y19701D01*
X34127D01*
Y20595D01*
X34133Y20656D01*
X34138Y20733D01*
X34155Y20822D01*
X34172Y20922D01*
X34199Y21022D01*
X34238Y21122D01*
Y21127D01*
X34244Y21133D01*
X34260Y21166D01*
X34282Y21216D01*
X34316Y21277D01*
X34360Y21344D01*
X34416Y21421D01*
X34477Y21494D01*
X34549Y21566D01*
X34560Y21577D01*
X34582Y21599D01*
X34627Y21632D01*
X34682Y21671D01*
X34749Y21721D01*
X34826Y21766D01*
X34915Y21816D01*
X35015Y21854D01*
X35021D01*
X35026Y21860D01*
X35043Y21866D01*
X35065Y21871D01*
X35120Y21888D01*
X35193Y21904D01*
X35282Y21921D01*
X35381Y21938D01*
X35492Y21949D01*
X35614Y21954D01*
X35881D01*
X35886D01*
X35897D01*
X35914D01*
X35936D01*
X35997Y21949D01*
D02*
G37*
G36*
X37357Y18502D02*
X35276Y17603D01*
X37357D01*
Y16976D01*
X34127D01*
Y17603D01*
X36203Y18497D01*
X34127D01*
Y19124D01*
X37357D01*
Y18502D01*
D02*
G37*
G36*
X36996Y16477D02*
X37030Y16443D01*
X37080Y16393D01*
X37135Y16321D01*
X37141Y16316D01*
X37146Y16304D01*
X37163Y16282D01*
X37180Y16254D01*
X37202Y16216D01*
X37224Y16177D01*
X37268Y16077D01*
Y16071D01*
X37279Y16049D01*
X37291Y16021D01*
X37302Y15982D01*
X37318Y15933D01*
X37335Y15883D01*
X37352Y15822D01*
X37363Y15755D01*
Y15749D01*
X37368Y15722D01*
X37374Y15688D01*
X37379Y15638D01*
X37391Y15583D01*
X37396Y15516D01*
X37402Y15450D01*
Y15328D01*
X37396Y15272D01*
X37391Y15211D01*
X37379Y15133D01*
X37363Y15050D01*
X37341Y14961D01*
X37307Y14878D01*
X37302Y14867D01*
X37291Y14839D01*
X37268Y14800D01*
X37235Y14745D01*
X37196Y14689D01*
X37146Y14623D01*
X37091Y14556D01*
X37024Y14495D01*
X37013Y14490D01*
X36991Y14467D01*
X36952Y14440D01*
X36896Y14406D01*
X36836Y14367D01*
X36758Y14329D01*
X36669Y14290D01*
X36575Y14251D01*
X36569D01*
X36564Y14245D01*
X36547D01*
X36525Y14240D01*
X36475Y14223D01*
X36397Y14212D01*
X36308Y14195D01*
X36203Y14179D01*
X36086Y14173D01*
X35964Y14168D01*
X35526D01*
X35520D01*
X35509D01*
X35492D01*
X35470D01*
X35404Y14173D01*
X35320Y14179D01*
X35232Y14190D01*
X35126Y14207D01*
X35021Y14229D01*
X34921Y14256D01*
X34915D01*
X34910Y14262D01*
X34876Y14273D01*
X34826Y14295D01*
X34765Y14323D01*
X34693Y14356D01*
X34615Y14401D01*
X34538Y14451D01*
X34466Y14506D01*
X34455Y14512D01*
X34432Y14534D01*
X34399Y14567D01*
X34360Y14612D01*
X34316Y14667D01*
X34266Y14734D01*
X34221Y14800D01*
X34183Y14878D01*
X34177Y14889D01*
X34166Y14917D01*
X34149Y14961D01*
X34133Y15017D01*
X34116Y15089D01*
X34099Y15167D01*
X34088Y15256D01*
X34083Y15344D01*
Y15389D01*
X34088Y15439D01*
X34094Y15505D01*
X34099Y15583D01*
X34110Y15661D01*
X34133Y15744D01*
X34155Y15822D01*
X34160Y15833D01*
X34166Y15855D01*
X34183Y15894D01*
X34205Y15944D01*
X34233Y15994D01*
X34266Y16055D01*
X34310Y16110D01*
X34355Y16166D01*
X34360Y16171D01*
X34377Y16188D01*
X34405Y16216D01*
X34443Y16243D01*
X34488Y16282D01*
X34543Y16316D01*
X34604Y16349D01*
X34671Y16382D01*
X34677Y16388D01*
X34704Y16393D01*
X34743Y16410D01*
X34793Y16427D01*
X34854Y16443D01*
X34926Y16460D01*
X35004Y16477D01*
X35087Y16488D01*
Y15877D01*
X35082D01*
X35076D01*
X35048Y15871D01*
X35004Y15860D01*
X34949Y15849D01*
X34887Y15827D01*
X34826Y15805D01*
X34765Y15772D01*
X34715Y15727D01*
X34710Y15722D01*
X34693Y15705D01*
X34677Y15677D01*
X34649Y15638D01*
X34627Y15588D01*
X34610Y15522D01*
X34593Y15450D01*
X34588Y15361D01*
Y15339D01*
X34593Y15316D01*
Y15289D01*
X34615Y15217D01*
X34627Y15178D01*
X34649Y15139D01*
Y15133D01*
X34660Y15122D01*
X34677Y15106D01*
X34693Y15078D01*
X34749Y15022D01*
X34826Y14961D01*
X34832Y14956D01*
X34849Y14950D01*
X34871Y14934D01*
X34904Y14917D01*
X34949Y14900D01*
X34998Y14878D01*
X35059Y14856D01*
X35120Y14839D01*
X35126D01*
X35148Y14834D01*
X35187Y14828D01*
X35237Y14817D01*
X35293Y14811D01*
X35359Y14800D01*
X35437Y14795D01*
X35520D01*
X35964D01*
X35970D01*
X35986D01*
X36009D01*
X36036Y14800D01*
X36075D01*
X36119Y14806D01*
X36219Y14817D01*
X36336Y14834D01*
X36452Y14861D01*
X36564Y14895D01*
X36663Y14945D01*
X36674Y14950D01*
X36702Y14972D01*
X36741Y15011D01*
X36780Y15061D01*
X36824Y15122D01*
X36863Y15200D01*
X36891Y15294D01*
X36896Y15350D01*
X36902Y15405D01*
Y15450D01*
X36896Y15494D01*
X36891Y15544D01*
Y15555D01*
X36885Y15588D01*
X36874Y15633D01*
X36863Y15677D01*
Y15683D01*
X36858Y15688D01*
X36847Y15716D01*
X36836Y15755D01*
X36819Y15788D01*
X36813Y15799D01*
X36802Y15816D01*
X36786Y15838D01*
X36763Y15860D01*
X36175Y15866D01*
Y15328D01*
X35709D01*
Y16488D01*
X36985D01*
X36991D01*
X36996Y16477D01*
D02*
G37*
%LPC*%
G36*
X36408Y32598D02*
X36397D01*
X36369D01*
X36330Y32593D01*
X36281Y32587D01*
X36225Y32570D01*
X36169Y32554D01*
X36114Y32520D01*
X36064Y32482D01*
X36059Y32476D01*
X36042Y32459D01*
X36025Y32432D01*
X35997Y32387D01*
X35975Y32337D01*
X35959Y32271D01*
X35942Y32193D01*
X35936Y32104D01*
Y31521D01*
X36858D01*
Y32087D01*
X36852Y32121D01*
X36847Y32165D01*
X36841Y32221D01*
X36824Y32282D01*
X36802Y32348D01*
X36769Y32409D01*
X36730Y32465D01*
X36724Y32471D01*
X36708Y32487D01*
X36680Y32509D01*
X36641Y32531D01*
X36597Y32554D01*
X36541Y32576D01*
X36480Y32593D01*
X36408Y32598D01*
D02*
G37*
G36*
X35065Y32526D02*
X35054D01*
X35026D01*
X34987Y32520D01*
X34937Y32509D01*
X34887Y32493D01*
X34832Y32465D01*
X34782Y32432D01*
X34738Y32387D01*
X34732Y32382D01*
X34721Y32359D01*
X34704Y32332D01*
X34688Y32287D01*
X34671Y32226D01*
X34654Y32160D01*
X34643Y32076D01*
X34638Y31982D01*
Y31521D01*
X35487D01*
Y32026D01*
X35481Y32071D01*
X35470Y32132D01*
X35459Y32193D01*
X35437Y32260D01*
X35409Y32326D01*
X35376Y32382D01*
X35370Y32387D01*
X35354Y32404D01*
X35331Y32426D01*
X35298Y32454D01*
X35254Y32482D01*
X35198Y32504D01*
X35137Y32520D01*
X35065Y32526D01*
D02*
G37*
G36*
X35964Y21322D02*
X35881D01*
X35609D01*
X35598D01*
X35570D01*
X35531D01*
X35476Y21316D01*
X35415Y21310D01*
X35354Y21299D01*
X35215Y21272D01*
X35209D01*
X35182Y21261D01*
X35148Y21249D01*
X35109Y21233D01*
X35059Y21211D01*
X35004Y21188D01*
X34904Y21122D01*
X34898Y21116D01*
X34882Y21105D01*
X34860Y21083D01*
X34832Y21055D01*
X34799Y21016D01*
X34765Y20978D01*
X34704Y20878D01*
X34699Y20872D01*
X34693Y20850D01*
X34682Y20822D01*
X34665Y20783D01*
X34654Y20733D01*
X34643Y20672D01*
X34638Y20611D01*
X34632Y20539D01*
Y20334D01*
X36858D01*
Y20600D01*
X36852Y20633D01*
X36847Y20678D01*
X36841Y20722D01*
X36830Y20778D01*
X36813Y20828D01*
X36791Y20883D01*
X36786Y20889D01*
X36780Y20905D01*
X36763Y20933D01*
X36741Y20966D01*
X36713Y21000D01*
X36686Y21039D01*
X36602Y21116D01*
X36597Y21122D01*
X36580Y21133D01*
X36552Y21150D01*
X36514Y21172D01*
X36469Y21200D01*
X36419Y21222D01*
X36358Y21244D01*
X36292Y21266D01*
X36281D01*
X36258Y21277D01*
X36219Y21283D01*
X36169Y21294D01*
X36108Y21305D01*
X36042Y21310D01*
X35964Y21322D01*
D02*
G37*
%LPD*%
D10*
X118Y3858D02*
Y39055D01*
X13780D02*
X22441D01*
X13780Y3858D02*
X22441D01*
D11*
X34311Y1791D02*
Y11791D01*
X54311D01*
X34311Y1791D02*
X54311D01*
Y11791D01*
X44311Y1791D02*
X54311D01*
M02*
