G04*
G04 #@! TF.GenerationSoftware,Altium Limited,Altium Designer,20.1.14 (287)*
G04*
G04 Layer_Physical_Order=1*
G04 Layer_Color=255*
%FSLAX25Y25*%
%MOIN*%
G70*
G04*
G04 #@! TF.SameCoordinates,393418DF-571C-4769-8AC5-FB63858C89C1*
G04*
G04*
G04 #@! TF.FilePolarity,Positive*
G04*
G01*
G75*
%ADD11C,0.01000*%
%ADD12R,0.15748X0.11811*%
%ADD13R,0.02756X0.01181*%
%ADD14R,0.02756X0.03937*%
%ADD22C,0.02500*%
%ADD23C,0.00700*%
%ADD24O,0.08661X0.04331*%
%ADD25O,0.10236X0.05118*%
G04:AMPARAMS|DCode=26|XSize=70.87mil|YSize=70.87mil|CornerRadius=8.86mil|HoleSize=0mil|Usage=FLASHONLY|Rotation=180.000|XOffset=0mil|YOffset=0mil|HoleType=Round|Shape=RoundedRectangle|*
%AMROUNDEDRECTD26*
21,1,0.07087,0.05315,0,0,180.0*
21,1,0.05315,0.07087,0,0,180.0*
1,1,0.01772,-0.02657,0.02657*
1,1,0.01772,0.02657,0.02657*
1,1,0.01772,0.02657,-0.02657*
1,1,0.01772,-0.02657,-0.02657*
%
%ADD26ROUNDEDRECTD26*%
%ADD27C,0.07087*%
%ADD28C,0.02362*%
G36*
X33366Y42913D02*
X33366Y31299D01*
X31681D01*
Y32390D01*
X27925D01*
Y31299D01*
X26563D01*
Y31405D01*
X22807D01*
Y31299D01*
X22787D01*
X22764Y28251D01*
X22263Y28101D01*
X22078Y28377D01*
X21522Y28749D01*
X20866Y28879D01*
X20210Y28749D01*
X19654Y28377D01*
X19283Y27821D01*
X19152Y27165D01*
X19283Y26509D01*
X19654Y25953D01*
X20210Y25582D01*
X20866Y25451D01*
X21522Y25582D01*
X21535Y25591D01*
X21767Y25436D01*
X22157Y25358D01*
X22387D01*
X22739Y25003D01*
X22697Y19371D01*
X22257D01*
X21925Y19305D01*
X21644Y19117D01*
X19860Y17332D01*
X19672Y17051D01*
X19606Y16719D01*
Y13352D01*
X19260Y13122D01*
X18889Y12565D01*
X18758Y11909D01*
X18889Y11253D01*
X19260Y10697D01*
X19816Y10326D01*
X20472Y10195D01*
X21128Y10326D01*
X21684Y10697D01*
X22056Y11253D01*
X22138Y11667D01*
X22638Y11616D01*
X22638Y11614D01*
X22807Y11508D01*
X23094Y11508D01*
X26563D01*
Y11614D01*
X27925D01*
Y10524D01*
X31681D01*
Y11614D01*
X33366D01*
X33366Y0D01*
X0Y0D01*
X-0Y11614D01*
Y32181D01*
D01*
X0Y42913D01*
X33366Y42913D01*
D02*
G37*
G36*
X55118Y24909D02*
X45375D01*
X45276Y24951D01*
X45276Y24951D01*
X39640D01*
X39099Y24951D01*
X39099Y24951D01*
X38476Y24909D01*
Y24552D01*
X36092Y22168D01*
X35934Y21785D01*
X35934Y21785D01*
Y13423D01*
X34875Y12365D01*
X33749Y11997D01*
X33366Y12155D01*
X31681D01*
Y14673D01*
X27925D01*
Y12155D01*
X26563D01*
Y15657D01*
X23471D01*
Y17413D01*
X26563D01*
Y21350D01*
Y25500D01*
X23471D01*
Y27256D01*
X26563D01*
Y30758D01*
X27925D01*
Y28240D01*
X31681D01*
Y30758D01*
X33366D01*
X33749Y30917D01*
X33907Y31299D01*
X33907Y42913D01*
X33907Y42913D01*
X55118D01*
Y24909D01*
D02*
G37*
G36*
X46850Y22835D02*
X44488Y12598D01*
X44357Y12730D01*
X36475D01*
Y21785D01*
X39099Y24409D01*
X45276D01*
X46850Y22835D01*
D02*
G37*
%LPC*%
G36*
X32458Y27074D02*
X31802Y26943D01*
X31246Y26572D01*
X31187Y26484D01*
X27925D01*
Y22335D01*
X31681D01*
Y22596D01*
X32458Y23646D01*
X33114Y23776D01*
X33670Y24148D01*
X34042Y24704D01*
X34172Y25360D01*
X34042Y26016D01*
X33670Y26572D01*
X33114Y26943D01*
X32458Y27074D01*
D02*
G37*
G36*
X31681Y20579D02*
X27925D01*
Y16429D01*
X31681D01*
Y18398D01*
Y20579D01*
D02*
G37*
%LPD*%
D11*
X22157Y26378D02*
X24685D01*
X21370Y27165D02*
X22157Y26378D01*
X20866Y27165D02*
X21370D01*
D12*
X46850Y18504D02*
D03*
Y33465D02*
D03*
D13*
X29803Y33268D02*
D03*
Y31299D02*
D03*
Y29331D02*
D03*
Y27362D02*
D03*
Y25394D02*
D03*
Y23425D02*
D03*
Y19488D02*
D03*
Y17520D02*
D03*
Y15551D02*
D03*
Y13583D02*
D03*
Y11614D02*
D03*
Y9646D02*
D03*
X24685Y12598D02*
D03*
Y14567D02*
D03*
Y16535D02*
D03*
Y18504D02*
D03*
Y20472D02*
D03*
Y22441D02*
D03*
Y24409D02*
D03*
Y26378D02*
D03*
Y28346D02*
D03*
Y30315D02*
D03*
D14*
Y9252D02*
D03*
Y33661D02*
D03*
D22*
X30502Y9274D02*
X34307D01*
X38189Y13155D01*
Y13386D01*
X30502Y5294D02*
Y9274D01*
X30502Y9274D01*
X28189Y4449D02*
X29656D01*
X30502Y5294D01*
D23*
X32441Y25377D02*
X32458Y25360D01*
X29820Y25377D02*
X32441D01*
X29803Y25394D02*
X29820Y25377D01*
X20472Y11909D02*
Y16719D01*
X22257Y18504D01*
X24685D01*
D24*
X28189Y38465D02*
D03*
Y4449D02*
D03*
D25*
X7087Y38465D02*
D03*
Y4449D02*
D03*
D26*
X49311Y6791D02*
D03*
D27*
X39311D02*
D03*
D28*
X38189Y18635D02*
D03*
Y16011D02*
D03*
Y21260D02*
D03*
Y13386D02*
D03*
X20866Y27165D02*
D03*
X32458Y25360D02*
D03*
X38966Y35513D02*
D03*
X38958Y37852D02*
D03*
X20472Y11909D02*
D03*
M02*
