G04*
G04 #@! TF.GenerationSoftware,Altium Limited,Altium Designer,20.1.14 (287)*
G04*
G04 Layer_Color=16711935*
%FSLAX25Y25*%
%MOIN*%
G70*
G04*
G04 #@! TF.SameCoordinates,393418DF-571C-4769-8AC5-FB63858C89C1*
G04*
G04*
G04 #@! TF.FilePolarity,Negative*
G04*
G01*
G75*
%ADD18O,0.09461X0.05131*%
%ADD19O,0.11036X0.05918*%
G04:AMPARAMS|DCode=20|XSize=78.87mil|YSize=78.87mil|CornerRadius=12.86mil|HoleSize=0mil|Usage=FLASHONLY|Rotation=180.000|XOffset=0mil|YOffset=0mil|HoleType=Round|Shape=RoundedRectangle|*
%AMROUNDEDRECTD20*
21,1,0.07887,0.05315,0,0,180.0*
21,1,0.05315,0.07887,0,0,180.0*
1,1,0.02572,-0.02657,0.02657*
1,1,0.02572,0.02657,0.02657*
1,1,0.02572,0.02657,-0.02657*
1,1,0.02572,-0.02657,-0.02657*
%
%ADD20ROUNDEDRECTD20*%
%ADD21C,0.07887*%
%ADD37R,0.03300X0.02700*%
%ADD38R,0.03950X0.04343*%
%ADD39R,0.02769X0.02572*%
%ADD40R,0.04540X0.02769*%
%ADD41R,0.04147X0.04934*%
%ADD42R,0.03950X0.01784*%
%ADD43R,0.01784X0.03950*%
%ADD44R,0.11430X0.11430*%
G36*
X48160Y17891D02*
X48427D01*
Y17869D01*
X48538D01*
Y17846D01*
X48672D01*
Y17824D01*
X48738D01*
Y17802D01*
X48849D01*
Y17780D01*
X48916D01*
Y17758D01*
X49005D01*
Y17735D01*
X49071D01*
Y17713D01*
X49138D01*
Y17691D01*
X49205D01*
Y17669D01*
X49249D01*
Y17646D01*
X49316D01*
Y17624D01*
X49383D01*
Y17602D01*
X49427D01*
Y17580D01*
X49471D01*
Y17558D01*
X49516D01*
Y17535D01*
X49560D01*
Y17513D01*
X49605D01*
Y17491D01*
X49649D01*
Y17469D01*
X49694D01*
Y17446D01*
X49738D01*
Y17424D01*
X49782D01*
Y17402D01*
X49805D01*
Y17380D01*
X49849D01*
Y17357D01*
X49894D01*
Y17335D01*
X49916D01*
Y17313D01*
X49960D01*
Y17291D01*
X49983D01*
Y17269D01*
X50027D01*
Y17246D01*
X50049D01*
Y17224D01*
X50071D01*
Y17202D01*
X50116D01*
Y17180D01*
X50138D01*
Y17158D01*
X50160D01*
Y17135D01*
X50182D01*
Y17113D01*
X50205D01*
Y17091D01*
X50227D01*
Y17069D01*
X50249D01*
Y17047D01*
X50271D01*
Y17024D01*
X50293D01*
Y17002D01*
X50316D01*
Y16980D01*
X50338D01*
Y16958D01*
Y16935D01*
X50360D01*
Y16913D01*
X50382D01*
Y16891D01*
Y16869D01*
X50405D01*
Y16847D01*
Y16824D01*
X50427D01*
Y16802D01*
Y16780D01*
Y16758D01*
X50449D01*
Y16735D01*
Y16713D01*
Y16691D01*
Y16669D01*
Y16646D01*
Y16624D01*
Y16602D01*
Y16580D01*
Y16558D01*
Y16535D01*
Y16513D01*
Y16491D01*
X50427D01*
Y16469D01*
Y16447D01*
Y16424D01*
X50405D01*
Y16402D01*
Y16380D01*
Y16358D01*
Y16335D01*
X50382D01*
Y16313D01*
Y16291D01*
Y16269D01*
X50360D01*
Y16247D01*
Y16224D01*
X50338D01*
Y16202D01*
Y16180D01*
Y16158D01*
X50316D01*
Y16136D01*
Y16113D01*
X50293D01*
Y16091D01*
Y16069D01*
Y16047D01*
X50271D01*
Y16024D01*
Y16002D01*
X50249D01*
Y15980D01*
Y15958D01*
Y15935D01*
X50227D01*
Y15913D01*
Y15891D01*
Y15869D01*
X50205D01*
Y15847D01*
Y15824D01*
X50182D01*
Y15802D01*
Y15780D01*
Y15758D01*
X50160D01*
Y15736D01*
Y15713D01*
X50138D01*
Y15691D01*
Y15669D01*
X50116D01*
Y15647D01*
Y15624D01*
Y15602D01*
X50094D01*
Y15580D01*
Y15558D01*
X50071D01*
Y15536D01*
Y15513D01*
Y15491D01*
X50049D01*
Y15469D01*
Y15447D01*
X50027D01*
Y15425D01*
Y15402D01*
Y15380D01*
X50005D01*
Y15358D01*
Y15336D01*
X49983D01*
Y15313D01*
Y15291D01*
Y15269D01*
X49960D01*
Y15247D01*
Y15225D01*
X49938D01*
Y15202D01*
Y15180D01*
Y15158D01*
X49916D01*
Y15136D01*
Y15113D01*
X49894D01*
Y15091D01*
Y15069D01*
X49871D01*
Y15047D01*
Y15024D01*
Y15002D01*
X49849D01*
Y14980D01*
Y14958D01*
Y14936D01*
X49827D01*
Y14913D01*
Y14891D01*
X49805D01*
Y14869D01*
Y14847D01*
Y14825D01*
X49782D01*
Y14802D01*
Y14780D01*
X49760D01*
Y14758D01*
Y14736D01*
Y14714D01*
X49738D01*
Y14691D01*
Y14669D01*
X49716D01*
Y14647D01*
Y14625D01*
Y14602D01*
X49694D01*
Y14580D01*
Y14558D01*
X49671D01*
Y14536D01*
Y14514D01*
Y14491D01*
X49649D01*
Y14469D01*
Y14447D01*
X49627D01*
Y14425D01*
Y14402D01*
X49605D01*
Y14380D01*
Y14358D01*
Y14336D01*
X49582D01*
Y14314D01*
Y14291D01*
Y14269D01*
X49560D01*
Y14247D01*
Y14225D01*
X49538D01*
Y14202D01*
Y14180D01*
Y14158D01*
X49516D01*
Y14136D01*
Y14114D01*
X49494D01*
Y14091D01*
Y14069D01*
X49471D01*
Y14047D01*
Y14025D01*
X49449D01*
Y14003D01*
Y13980D01*
Y13958D01*
X49427D01*
Y13936D01*
Y13914D01*
X49405D01*
Y13891D01*
Y13869D01*
X49383D01*
Y13847D01*
Y13825D01*
X49360D01*
Y13803D01*
Y13780D01*
X49338D01*
Y13758D01*
X49316D01*
Y13736D01*
Y13714D01*
X49294D01*
Y13691D01*
Y13669D01*
X49272D01*
Y13647D01*
X49249D01*
Y13625D01*
Y13602D01*
X49227D01*
Y13580D01*
X49205D01*
Y13558D01*
X49183D01*
Y13536D01*
X49160D01*
Y13514D01*
X49138D01*
Y13491D01*
X49116D01*
Y13469D01*
X49094D01*
Y13447D01*
X49071D01*
Y13425D01*
X49049D01*
Y13403D01*
X49027D01*
Y13380D01*
X49005D01*
Y13358D01*
X48960D01*
Y13336D01*
X48916D01*
Y13314D01*
X48894D01*
Y13292D01*
X48849D01*
Y13269D01*
X48805D01*
Y13247D01*
X48760D01*
Y13225D01*
X48694D01*
Y13203D01*
X48627D01*
Y13180D01*
X48583D01*
Y13158D01*
X48494D01*
Y13136D01*
X48405D01*
Y13114D01*
X48272D01*
Y13092D01*
X47983D01*
Y13069D01*
X47916D01*
Y13092D01*
X47605D01*
Y13114D01*
X47449D01*
Y13136D01*
X47383D01*
Y13158D01*
X47272D01*
Y13180D01*
X47205D01*
Y13203D01*
X47139D01*
Y13225D01*
X47072D01*
Y13247D01*
X47005D01*
Y13269D01*
X46961D01*
Y13292D01*
X46916D01*
Y13314D01*
X46872D01*
Y13336D01*
X46827D01*
Y13358D01*
X46783D01*
Y13380D01*
X46738D01*
Y13403D01*
X46716D01*
Y13425D01*
X46694D01*
Y13447D01*
X46650D01*
Y13469D01*
X46627D01*
Y13491D01*
X46605D01*
Y13514D01*
X46583D01*
Y13536D01*
X46561D01*
Y13558D01*
Y13580D01*
X46538D01*
Y13602D01*
X46516D01*
Y13625D01*
X46494D01*
Y13647D01*
Y13669D01*
X46472D01*
Y13691D01*
Y13714D01*
X46450D01*
Y13736D01*
Y13758D01*
X46428D01*
Y13780D01*
Y13803D01*
X46405D01*
Y13825D01*
Y13847D01*
X46383D01*
Y13869D01*
Y13891D01*
Y13914D01*
X46361D01*
Y13936D01*
Y13958D01*
X46339D01*
Y13980D01*
Y14003D01*
Y14025D01*
X46316D01*
Y14047D01*
Y14069D01*
Y14091D01*
Y14114D01*
X46294D01*
Y14136D01*
Y14158D01*
Y14180D01*
X46272D01*
Y14202D01*
Y14225D01*
Y14247D01*
X46250D01*
Y14269D01*
Y14291D01*
Y14314D01*
X46227D01*
Y14336D01*
Y14358D01*
Y14380D01*
X46205D01*
Y14402D01*
Y14425D01*
Y14447D01*
X46183D01*
Y14469D01*
Y14491D01*
Y14514D01*
Y14536D01*
X46161D01*
Y14558D01*
Y14580D01*
Y14602D01*
X46139D01*
Y14625D01*
Y14647D01*
Y14669D01*
X46116D01*
Y14691D01*
Y14714D01*
Y14736D01*
Y14758D01*
X46094D01*
Y14780D01*
Y14802D01*
Y14825D01*
X46072D01*
Y14847D01*
Y14869D01*
Y14891D01*
X46050D01*
Y14913D01*
Y14936D01*
Y14958D01*
X46027D01*
Y14980D01*
Y15002D01*
Y15024D01*
X46005D01*
Y15047D01*
Y15069D01*
Y15091D01*
X45983D01*
Y15113D01*
Y15136D01*
Y15158D01*
Y15180D01*
X45961D01*
Y15202D01*
Y15225D01*
Y15247D01*
X45939D01*
Y15269D01*
Y15291D01*
Y15313D01*
X45916D01*
Y15336D01*
Y15358D01*
Y15380D01*
X45894D01*
Y15402D01*
Y15425D01*
Y15447D01*
X45872D01*
Y15469D01*
Y15491D01*
Y15513D01*
X45850D01*
Y15536D01*
Y15558D01*
Y15580D01*
Y15602D01*
X45828D01*
Y15624D01*
Y15647D01*
Y15669D01*
X45805D01*
Y15691D01*
Y15713D01*
Y15736D01*
X45783D01*
Y15758D01*
Y15780D01*
Y15802D01*
X45761D01*
Y15824D01*
Y15847D01*
Y15869D01*
X45739D01*
Y15891D01*
Y15913D01*
Y15935D01*
X45717D01*
Y15958D01*
Y15980D01*
Y16002D01*
Y16024D01*
X45694D01*
Y16047D01*
Y16069D01*
Y16091D01*
X45672D01*
Y16113D01*
Y16136D01*
Y16158D01*
X45650D01*
Y16180D01*
Y16202D01*
Y16224D01*
X45628D01*
Y16247D01*
Y16269D01*
X45605D01*
Y16291D01*
Y16313D01*
Y16335D01*
Y16358D01*
X45583D01*
Y16380D01*
Y16402D01*
Y16424D01*
Y16447D01*
X45561D01*
Y16469D01*
Y16491D01*
Y16513D01*
Y16535D01*
Y16558D01*
Y16580D01*
Y16602D01*
Y16624D01*
Y16646D01*
X45583D01*
Y16669D01*
Y16691D01*
Y16713D01*
Y16735D01*
X45605D01*
Y16758D01*
Y16780D01*
X45628D01*
Y16802D01*
Y16824D01*
X45650D01*
Y16847D01*
X45672D01*
Y16869D01*
Y16891D01*
X45694D01*
Y16913D01*
X45717D01*
Y16935D01*
X45739D01*
Y16958D01*
Y16980D01*
X45761D01*
Y17002D01*
X45783D01*
Y17024D01*
X45805D01*
Y17047D01*
X45828D01*
Y17069D01*
X45850D01*
Y17091D01*
X45894D01*
Y17113D01*
X45916D01*
Y17135D01*
X45939D01*
Y17158D01*
X45961D01*
Y17180D01*
X45983D01*
Y17202D01*
X46027D01*
Y17224D01*
X46050D01*
Y17246D01*
X46072D01*
Y17269D01*
X46116D01*
Y17291D01*
X46139D01*
Y17313D01*
X46183D01*
Y17335D01*
X46205D01*
Y17357D01*
X46250D01*
Y17380D01*
X46272D01*
Y17402D01*
X46316D01*
Y17424D01*
X46361D01*
Y17446D01*
X46383D01*
Y17469D01*
X46428D01*
Y17491D01*
X46472D01*
Y17513D01*
X46516D01*
Y17535D01*
X46561D01*
Y17558D01*
X46605D01*
Y17580D01*
X46650D01*
Y17602D01*
X46694D01*
Y17624D01*
X46761D01*
Y17646D01*
X46805D01*
Y17669D01*
X46850D01*
Y17691D01*
X46916D01*
Y17713D01*
X46983D01*
Y17735D01*
X47050D01*
Y17758D01*
X47116D01*
Y17780D01*
X47183D01*
Y17802D01*
X47294D01*
Y17824D01*
X47361D01*
Y17846D01*
X47494D01*
Y17869D01*
X47583D01*
Y17891D01*
X47850D01*
Y17913D01*
X48160D01*
Y17891D01*
D02*
G37*
G36*
X45094Y16424D02*
Y16402D01*
Y16380D01*
X45117D01*
Y16358D01*
Y16335D01*
Y16313D01*
Y16291D01*
X45139D01*
Y16269D01*
Y16247D01*
Y16224D01*
Y16202D01*
X45161D01*
Y16180D01*
Y16158D01*
Y16136D01*
X45183D01*
Y16113D01*
Y16091D01*
Y16069D01*
X45205D01*
Y16047D01*
Y16024D01*
Y16002D01*
X45228D01*
Y15980D01*
Y15958D01*
Y15935D01*
X45250D01*
Y15913D01*
Y15891D01*
Y15869D01*
X45272D01*
Y15847D01*
Y15824D01*
Y15802D01*
X45294D01*
Y15780D01*
Y15758D01*
Y15736D01*
Y15713D01*
X45316D01*
Y15691D01*
Y15669D01*
Y15647D01*
X45339D01*
Y15624D01*
Y15602D01*
Y15580D01*
X45361D01*
Y15558D01*
Y15536D01*
Y15513D01*
X45383D01*
Y15491D01*
Y15469D01*
Y15447D01*
X45405D01*
Y15425D01*
Y15402D01*
Y15380D01*
Y15358D01*
X45428D01*
Y15336D01*
Y15313D01*
X45450D01*
Y15291D01*
Y15269D01*
Y15247D01*
Y15225D01*
X45472D01*
Y15202D01*
Y15180D01*
Y15158D01*
X45494D01*
Y15136D01*
Y15113D01*
Y15091D01*
X45516D01*
Y15069D01*
Y15047D01*
Y15024D01*
Y15002D01*
X45539D01*
Y14980D01*
Y14958D01*
X45561D01*
Y14936D01*
Y14913D01*
Y14891D01*
Y14869D01*
X45583D01*
Y14847D01*
Y14825D01*
Y14802D01*
X45605D01*
Y14780D01*
Y14758D01*
Y14736D01*
X45628D01*
Y14714D01*
Y14691D01*
Y14669D01*
Y14647D01*
X45650D01*
Y14625D01*
Y14602D01*
X45672D01*
Y14580D01*
Y14558D01*
Y14536D01*
Y14514D01*
X45694D01*
Y14491D01*
Y14469D01*
X45717D01*
Y14447D01*
Y14425D01*
Y14402D01*
Y14380D01*
X45739D01*
Y14358D01*
Y14336D01*
Y14314D01*
X45761D01*
Y14291D01*
Y14269D01*
Y14247D01*
X45783D01*
Y14225D01*
Y14202D01*
Y14180D01*
Y14158D01*
X45805D01*
Y14136D01*
Y14114D01*
X45828D01*
Y14091D01*
Y14069D01*
Y14047D01*
Y14025D01*
X45850D01*
Y14003D01*
Y13980D01*
Y13958D01*
X45872D01*
Y13936D01*
Y13914D01*
Y13891D01*
X45894D01*
Y13869D01*
Y13847D01*
Y13825D01*
X45916D01*
Y13803D01*
Y13780D01*
Y13758D01*
X45939D01*
Y13736D01*
Y13714D01*
Y13691D01*
X45961D01*
Y13669D01*
Y13647D01*
X45983D01*
Y13625D01*
Y13602D01*
X46005D01*
Y13580D01*
Y13558D01*
X46027D01*
Y13536D01*
Y13514D01*
X46050D01*
Y13491D01*
Y13469D01*
X46072D01*
Y13447D01*
Y13425D01*
X46094D01*
Y13403D01*
Y13380D01*
X46116D01*
Y13358D01*
X46139D01*
Y13336D01*
X46161D01*
Y13314D01*
Y13292D01*
X46183D01*
Y13269D01*
X46205D01*
Y13247D01*
X46227D01*
Y13225D01*
X46250D01*
Y13203D01*
X46205D01*
Y13180D01*
X46161D01*
Y13158D01*
X46094D01*
Y13136D01*
X46050D01*
Y13114D01*
X46005D01*
Y13092D01*
X45939D01*
Y13069D01*
X45894D01*
Y13047D01*
X45828D01*
Y13025D01*
X45783D01*
Y13003D01*
X45717D01*
Y12980D01*
X45650D01*
Y12958D01*
X45561D01*
Y12936D01*
X45272D01*
Y12958D01*
X45228D01*
Y12980D01*
X45183D01*
Y13003D01*
X45161D01*
Y13025D01*
X45139D01*
Y13047D01*
X45094D01*
Y13069D01*
X45072D01*
Y13092D01*
X45050D01*
Y13114D01*
X45028D01*
Y13136D01*
X45006D01*
Y13158D01*
Y13180D01*
X44983D01*
Y13203D01*
X44961D01*
Y13225D01*
X44939D01*
Y13247D01*
X44917D01*
Y13269D01*
Y13292D01*
X44894D01*
Y13314D01*
X44872D01*
Y13336D01*
X44850D01*
Y13358D01*
Y13380D01*
X44828D01*
Y13403D01*
X44805D01*
Y13425D01*
Y13447D01*
X44783D01*
Y13469D01*
X44761D01*
Y13491D01*
Y13514D01*
X44739D01*
Y13536D01*
X44717D01*
Y13558D01*
Y13580D01*
X44694D01*
Y13602D01*
X44672D01*
Y13625D01*
Y13647D01*
X44650D01*
Y13669D01*
X44628D01*
Y13691D01*
Y13714D01*
X44605D01*
Y13736D01*
X44583D01*
Y13758D01*
Y13780D01*
X44561D01*
Y13803D01*
X44539D01*
Y13825D01*
Y13847D01*
X44517D01*
Y13869D01*
Y13891D01*
X44494D01*
Y13914D01*
X44472D01*
Y13936D01*
Y13958D01*
X44450D01*
Y13980D01*
X44428D01*
Y14003D01*
Y14025D01*
X44405D01*
Y14047D01*
Y14069D01*
X44383D01*
Y14091D01*
X44361D01*
Y14114D01*
Y14136D01*
X44339D01*
Y14158D01*
Y14180D01*
X44317D01*
Y14202D01*
X44295D01*
Y14225D01*
Y14247D01*
X44272D01*
Y14269D01*
X44250D01*
Y14291D01*
Y14314D01*
X44228D01*
Y14336D01*
Y14358D01*
X44206D01*
Y14380D01*
X44183D01*
Y14402D01*
Y14425D01*
X44161D01*
Y14447D01*
Y14469D01*
X44139D01*
Y14491D01*
X44117D01*
Y14514D01*
Y14536D01*
X44094D01*
Y14558D01*
Y14580D01*
X44072D01*
Y14602D01*
X44050D01*
Y14625D01*
Y14647D01*
X44028D01*
Y14669D01*
X44006D01*
Y14691D01*
Y14714D01*
X43983D01*
Y14736D01*
Y14758D01*
X43961D01*
Y14780D01*
Y14802D01*
X43939D01*
Y14825D01*
Y14847D01*
X43917D01*
Y14869D01*
Y14891D01*
X43894D01*
Y14913D01*
Y14936D01*
Y14958D01*
X43872D01*
Y14980D01*
Y15002D01*
X43850D01*
Y15024D01*
Y15047D01*
X43828D01*
Y15069D01*
Y15091D01*
Y15113D01*
X43806D01*
Y15136D01*
Y15158D01*
Y15180D01*
X43783D01*
Y15202D01*
Y15225D01*
X43761D01*
Y15247D01*
Y15269D01*
Y15291D01*
Y15313D01*
X43739D01*
Y15336D01*
Y15358D01*
Y15380D01*
Y15402D01*
Y15425D01*
Y15447D01*
Y15469D01*
Y15491D01*
Y15513D01*
Y15536D01*
Y15558D01*
Y15580D01*
Y15602D01*
Y15624D01*
X43761D01*
Y15647D01*
Y15669D01*
X43783D01*
Y15691D01*
Y15713D01*
X43806D01*
Y15736D01*
Y15758D01*
X43828D01*
Y15780D01*
X43850D01*
Y15802D01*
X43872D01*
Y15824D01*
X43894D01*
Y15847D01*
X43917D01*
Y15869D01*
X43939D01*
Y15891D01*
X43961D01*
Y15913D01*
X44006D01*
Y15935D01*
X44028D01*
Y15958D01*
X44050D01*
Y15980D01*
X44094D01*
Y16002D01*
X44139D01*
Y16024D01*
X44161D01*
Y16047D01*
X44206D01*
Y16069D01*
X44250D01*
Y16091D01*
X44295D01*
Y16113D01*
X44339D01*
Y16136D01*
X44361D01*
Y16158D01*
X44428D01*
Y16180D01*
X44472D01*
Y16202D01*
X44517D01*
Y16224D01*
X44561D01*
Y16247D01*
X44605D01*
Y16269D01*
X44672D01*
Y16291D01*
X44717D01*
Y16313D01*
X44783D01*
Y16335D01*
X44828D01*
Y16358D01*
X44894D01*
Y16380D01*
X44939D01*
Y16402D01*
X45006D01*
Y16424D01*
X45072D01*
Y16447D01*
X45094D01*
Y16424D01*
D02*
G37*
G36*
X50960Y16335D02*
X51004D01*
Y16313D01*
X51071D01*
Y16291D01*
X51116D01*
Y16269D01*
X51160D01*
Y16247D01*
X51227D01*
Y16224D01*
X51271D01*
Y16202D01*
X51338D01*
Y16180D01*
X51360D01*
Y16158D01*
X51427D01*
Y16136D01*
X51471D01*
Y16113D01*
X51516D01*
Y16091D01*
X51560D01*
Y16069D01*
X51604D01*
Y16047D01*
X51671D01*
Y16024D01*
X51693D01*
Y16002D01*
X51738D01*
Y15980D01*
X51782D01*
Y15958D01*
X51827D01*
Y15935D01*
X51871D01*
Y15913D01*
X51893D01*
Y15891D01*
X51938D01*
Y15869D01*
X51982D01*
Y15847D01*
X52004D01*
Y15824D01*
X52049D01*
Y15802D01*
X52071D01*
Y15780D01*
X52115D01*
Y15758D01*
X52138D01*
Y15736D01*
X52160D01*
Y15713D01*
X52182D01*
Y15691D01*
X52204D01*
Y15669D01*
X52227D01*
Y15647D01*
X52249D01*
Y15624D01*
Y15602D01*
X52271D01*
Y15580D01*
Y15558D01*
X52293D01*
Y15536D01*
Y15513D01*
Y15491D01*
Y15469D01*
Y15447D01*
Y15425D01*
Y15402D01*
Y15380D01*
X52271D01*
Y15358D01*
Y15336D01*
X52249D01*
Y15313D01*
Y15291D01*
Y15269D01*
X52227D01*
Y15247D01*
Y15225D01*
X52204D01*
Y15202D01*
Y15180D01*
X52182D01*
Y15158D01*
Y15136D01*
X52160D01*
Y15113D01*
Y15091D01*
X52138D01*
Y15069D01*
Y15047D01*
X52115D01*
Y15024D01*
X52093D01*
Y15002D01*
Y14980D01*
X52071D01*
Y14958D01*
Y14936D01*
X52049D01*
Y14913D01*
Y14891D01*
X52027D01*
Y14869D01*
Y14847D01*
X52004D01*
Y14825D01*
X51982D01*
Y14802D01*
Y14780D01*
X51960D01*
Y14758D01*
Y14736D01*
X51938D01*
Y14714D01*
Y14691D01*
X51916D01*
Y14669D01*
Y14647D01*
X51893D01*
Y14625D01*
Y14602D01*
X51871D01*
Y14580D01*
Y14558D01*
X51849D01*
Y14536D01*
X51827D01*
Y14514D01*
Y14491D01*
X51804D01*
Y14469D01*
Y14447D01*
X51782D01*
Y14425D01*
Y14402D01*
X51760D01*
Y14380D01*
Y14358D01*
X51738D01*
Y14336D01*
X51715D01*
Y14314D01*
Y14291D01*
X51693D01*
Y14269D01*
Y14247D01*
X51671D01*
Y14225D01*
Y14202D01*
X51649D01*
Y14180D01*
Y14158D01*
X51627D01*
Y14136D01*
X51604D01*
Y14114D01*
Y14091D01*
X51582D01*
Y14069D01*
Y14047D01*
X51560D01*
Y14025D01*
Y14003D01*
X51538D01*
Y13980D01*
Y13958D01*
X51516D01*
Y13936D01*
Y13914D01*
X51493D01*
Y13891D01*
Y13869D01*
X51471D01*
Y13847D01*
X51449D01*
Y13825D01*
Y13803D01*
X51427D01*
Y13780D01*
Y13758D01*
X51405D01*
Y13736D01*
Y13714D01*
X51382D01*
Y13691D01*
Y13669D01*
X51360D01*
Y13647D01*
X51338D01*
Y13625D01*
Y13602D01*
X51316D01*
Y13580D01*
Y13558D01*
X51293D01*
Y13536D01*
Y13514D01*
X51271D01*
Y13491D01*
Y13469D01*
X51249D01*
Y13447D01*
X51227D01*
Y13425D01*
X51205D01*
Y13403D01*
Y13380D01*
X51182D01*
Y13358D01*
X51160D01*
Y13336D01*
X51138D01*
Y13314D01*
X51116D01*
Y13292D01*
Y13269D01*
X51093D01*
Y13247D01*
X51071D01*
Y13225D01*
X51049D01*
Y13203D01*
X51027D01*
Y13180D01*
X51004D01*
Y13158D01*
X50982D01*
Y13136D01*
X50960D01*
Y13114D01*
X50938D01*
Y13092D01*
X50916D01*
Y13069D01*
X50893D01*
Y13047D01*
X50871D01*
Y13025D01*
X50827D01*
Y13003D01*
X50805D01*
Y12980D01*
X50760D01*
Y12958D01*
X50716D01*
Y12936D01*
X50649D01*
Y12914D01*
X50338D01*
Y12936D01*
X50227D01*
Y12958D01*
X50138D01*
Y12980D01*
X50071D01*
Y13003D01*
X49983D01*
Y13025D01*
X49938D01*
Y13047D01*
X49871D01*
Y13069D01*
X49805D01*
Y13092D01*
X49760D01*
Y13114D01*
X49694D01*
Y13136D01*
X49649D01*
Y13158D01*
X49582D01*
Y13180D01*
X49538D01*
Y13203D01*
X49516D01*
Y13225D01*
X49538D01*
Y13247D01*
X49560D01*
Y13269D01*
Y13292D01*
X49582D01*
Y13314D01*
X49605D01*
Y13336D01*
X49627D01*
Y13358D01*
X49649D01*
Y13380D01*
Y13403D01*
X49671D01*
Y13425D01*
X49694D01*
Y13447D01*
Y13469D01*
X49716D01*
Y13491D01*
X49738D01*
Y13514D01*
Y13536D01*
X49760D01*
Y13558D01*
Y13580D01*
X49782D01*
Y13602D01*
Y13625D01*
X49805D01*
Y13647D01*
Y13669D01*
X49827D01*
Y13691D01*
Y13714D01*
X49849D01*
Y13736D01*
Y13758D01*
X49871D01*
Y13780D01*
Y13803D01*
X49894D01*
Y13825D01*
Y13847D01*
X49916D01*
Y13869D01*
Y13891D01*
Y13914D01*
X49938D01*
Y13936D01*
Y13958D01*
X49960D01*
Y13980D01*
Y14003D01*
X49983D01*
Y14025D01*
Y14047D01*
Y14069D01*
X50005D01*
Y14091D01*
Y14114D01*
X50027D01*
Y14136D01*
Y14158D01*
Y14180D01*
X50049D01*
Y14202D01*
Y14225D01*
X50071D01*
Y14247D01*
Y14269D01*
Y14291D01*
X50094D01*
Y14314D01*
Y14336D01*
X50116D01*
Y14358D01*
Y14380D01*
Y14402D01*
X50138D01*
Y14425D01*
Y14447D01*
X50160D01*
Y14469D01*
Y14491D01*
Y14514D01*
X50182D01*
Y14536D01*
Y14558D01*
X50205D01*
Y14580D01*
Y14602D01*
Y14625D01*
X50227D01*
Y14647D01*
Y14669D01*
X50249D01*
Y14691D01*
Y14714D01*
Y14736D01*
X50271D01*
Y14758D01*
Y14780D01*
X50293D01*
Y14802D01*
Y14825D01*
Y14847D01*
X50316D01*
Y14869D01*
Y14891D01*
X50338D01*
Y14913D01*
Y14936D01*
Y14958D01*
X50360D01*
Y14980D01*
Y15002D01*
X50382D01*
Y15024D01*
Y15047D01*
Y15069D01*
X50405D01*
Y15091D01*
Y15113D01*
X50427D01*
Y15136D01*
Y15158D01*
X50449D01*
Y15180D01*
Y15202D01*
Y15225D01*
X50471D01*
Y15247D01*
Y15269D01*
Y15291D01*
X50494D01*
Y15313D01*
Y15336D01*
X50516D01*
Y15358D01*
Y15380D01*
X50538D01*
Y15402D01*
Y15425D01*
Y15447D01*
X50560D01*
Y15469D01*
Y15491D01*
X50582D01*
Y15513D01*
Y15536D01*
Y15558D01*
X50605D01*
Y15580D01*
Y15602D01*
X50627D01*
Y15624D01*
Y15647D01*
Y15669D01*
X50649D01*
Y15691D01*
Y15713D01*
X50671D01*
Y15736D01*
Y15758D01*
Y15780D01*
X50694D01*
Y15802D01*
Y15824D01*
X50716D01*
Y15847D01*
Y15869D01*
Y15891D01*
X50738D01*
Y15913D01*
Y15935D01*
X50760D01*
Y15958D01*
Y15980D01*
Y16002D01*
X50782D01*
Y16024D01*
Y16047D01*
X50805D01*
Y16069D01*
Y16091D01*
Y16113D01*
X50827D01*
Y16136D01*
Y16158D01*
Y16180D01*
X50849D01*
Y16202D01*
Y16224D01*
Y16247D01*
X50871D01*
Y16269D01*
Y16291D01*
Y16313D01*
X50893D01*
Y16335D01*
Y16358D01*
X50960D01*
Y16335D01*
D02*
G37*
G36*
X43517Y14625D02*
Y14602D01*
X43539D01*
Y14580D01*
Y14558D01*
X43561D01*
Y14536D01*
Y14514D01*
X43584D01*
Y14491D01*
Y14469D01*
X43606D01*
Y14447D01*
Y14425D01*
X43628D01*
Y14402D01*
X43650D01*
Y14380D01*
Y14358D01*
X43672D01*
Y14336D01*
X43694D01*
Y14314D01*
Y14291D01*
X43717D01*
Y14269D01*
Y14247D01*
X43739D01*
Y14225D01*
X43761D01*
Y14202D01*
Y14180D01*
X43783D01*
Y14158D01*
Y14136D01*
X43806D01*
Y14114D01*
X43828D01*
Y14091D01*
Y14069D01*
X43850D01*
Y14047D01*
Y14025D01*
X43872D01*
Y14003D01*
X43894D01*
Y13980D01*
Y13958D01*
X43917D01*
Y13936D01*
Y13914D01*
X43939D01*
Y13891D01*
X43961D01*
Y13869D01*
Y13847D01*
X43983D01*
Y13825D01*
X44006D01*
Y13803D01*
Y13780D01*
X44028D01*
Y13758D01*
Y13736D01*
X44050D01*
Y13714D01*
X44072D01*
Y13691D01*
Y13669D01*
X44094D01*
Y13647D01*
X44117D01*
Y13625D01*
Y13602D01*
X44139D01*
Y13580D01*
Y13558D01*
X44161D01*
Y13536D01*
X44183D01*
Y13514D01*
Y13491D01*
X44206D01*
Y13469D01*
X44228D01*
Y13447D01*
Y13425D01*
X44250D01*
Y13403D01*
X44272D01*
Y13380D01*
Y13358D01*
X44295D01*
Y13336D01*
X44317D01*
Y13314D01*
Y13292D01*
X44295D01*
Y13269D01*
X44228D01*
Y13247D01*
X44183D01*
Y13225D01*
X44117D01*
Y13203D01*
X44072D01*
Y13180D01*
X44028D01*
Y13158D01*
X43961D01*
Y13136D01*
X43917D01*
Y13114D01*
X43850D01*
Y13092D01*
X43806D01*
Y13069D01*
X43739D01*
Y13047D01*
X43694D01*
Y13025D01*
X43650D01*
Y13003D01*
X43584D01*
Y12980D01*
X43539D01*
Y12958D01*
X43495D01*
Y12936D01*
X43428D01*
Y12914D01*
X43383D01*
Y12892D01*
X43317D01*
Y12869D01*
X43272D01*
Y12847D01*
X43206D01*
Y12825D01*
X43161D01*
Y12803D01*
X43095D01*
Y12780D01*
X43028D01*
Y12758D01*
X42961D01*
Y12736D01*
X42806D01*
Y12758D01*
Y12780D01*
Y12803D01*
X42784D01*
Y12825D01*
Y12847D01*
Y12869D01*
Y12892D01*
Y12914D01*
Y12936D01*
Y12958D01*
Y12980D01*
X42761D01*
Y13003D01*
Y13025D01*
Y13047D01*
Y13069D01*
Y13092D01*
Y13114D01*
Y13136D01*
Y13158D01*
Y13180D01*
Y13203D01*
X42784D01*
Y13225D01*
Y13247D01*
Y13269D01*
Y13292D01*
Y13314D01*
Y13336D01*
Y13358D01*
Y13380D01*
Y13403D01*
X42806D01*
Y13425D01*
Y13447D01*
Y13469D01*
Y13491D01*
Y13514D01*
X42828D01*
Y13536D01*
Y13558D01*
Y13580D01*
Y13602D01*
X42850D01*
Y13625D01*
Y13647D01*
Y13669D01*
Y13691D01*
X42872D01*
Y13714D01*
Y13736D01*
Y13758D01*
X42895D01*
Y13780D01*
Y13803D01*
Y13825D01*
X42917D01*
Y13847D01*
Y13869D01*
X42939D01*
Y13891D01*
Y13914D01*
Y13936D01*
X42961D01*
Y13958D01*
Y13980D01*
X42984D01*
Y14003D01*
Y14025D01*
X43006D01*
Y14047D01*
Y14069D01*
X43028D01*
Y14091D01*
X43050D01*
Y14114D01*
Y14136D01*
X43072D01*
Y14158D01*
Y14180D01*
X43095D01*
Y14202D01*
X43117D01*
Y14225D01*
Y14247D01*
X43139D01*
Y14269D01*
X43161D01*
Y14291D01*
Y14314D01*
X43183D01*
Y14336D01*
X43206D01*
Y14358D01*
X43228D01*
Y14380D01*
X43250D01*
Y14402D01*
Y14425D01*
X43272D01*
Y14447D01*
X43295D01*
Y14469D01*
X43317D01*
Y14491D01*
X43339D01*
Y14514D01*
X43361D01*
Y14536D01*
X43383D01*
Y14558D01*
X43406D01*
Y14580D01*
X43428D01*
Y14602D01*
X43472D01*
Y14625D01*
X43495D01*
Y14647D01*
X43517D01*
Y14625D01*
D02*
G37*
G36*
X52426Y14580D02*
X52449D01*
Y14558D01*
X52493D01*
Y14536D01*
Y14514D01*
X52538D01*
Y14491D01*
X52560D01*
Y14469D01*
X52582D01*
Y14447D01*
X52604D01*
Y14425D01*
Y14402D01*
X52627D01*
Y14380D01*
X52649D01*
Y14358D01*
X52671D01*
Y14336D01*
X52693D01*
Y14314D01*
X52715D01*
Y14291D01*
Y14269D01*
X52738D01*
Y14247D01*
X52760D01*
Y14225D01*
X52782D01*
Y14202D01*
Y14180D01*
X52804D01*
Y14158D01*
X52826D01*
Y14136D01*
Y14114D01*
X52849D01*
Y14091D01*
Y14069D01*
X52871D01*
Y14047D01*
Y14025D01*
X52893D01*
Y14003D01*
Y13980D01*
X52915D01*
Y13958D01*
Y13936D01*
X52938D01*
Y13914D01*
Y13891D01*
X52960D01*
Y13869D01*
Y13847D01*
X52982D01*
Y13825D01*
Y13803D01*
Y13780D01*
X53004D01*
Y13758D01*
Y13736D01*
Y13714D01*
X53026D01*
Y13691D01*
Y13669D01*
Y13647D01*
X53049D01*
Y13625D01*
Y13602D01*
Y13580D01*
Y13558D01*
Y13536D01*
X53071D01*
Y13514D01*
Y13491D01*
Y13469D01*
Y13447D01*
X53093D01*
Y13425D01*
Y13403D01*
Y13380D01*
Y13358D01*
Y13336D01*
Y13314D01*
Y13292D01*
Y13269D01*
Y13247D01*
X53115D01*
Y13225D01*
Y13203D01*
Y13180D01*
Y13158D01*
Y13136D01*
Y13114D01*
Y13092D01*
Y13069D01*
Y13047D01*
Y13025D01*
Y13003D01*
Y12980D01*
Y12958D01*
Y12936D01*
X53093D01*
Y12914D01*
Y12892D01*
Y12869D01*
Y12847D01*
Y12825D01*
Y12803D01*
Y12780D01*
X53071D01*
Y12758D01*
Y12736D01*
Y12714D01*
X53049D01*
Y12692D01*
Y12669D01*
X52982D01*
Y12692D01*
X52893D01*
Y12714D01*
X52826D01*
Y12736D01*
X52760D01*
Y12758D01*
X52693D01*
Y12780D01*
X52649D01*
Y12803D01*
X52582D01*
Y12825D01*
X52538D01*
Y12847D01*
X52471D01*
Y12869D01*
X52426D01*
Y12892D01*
X52382D01*
Y12914D01*
X52315D01*
Y12936D01*
X52271D01*
Y12958D01*
X52227D01*
Y12980D01*
X52160D01*
Y13003D01*
X52115D01*
Y13025D01*
X52071D01*
Y13047D01*
X52004D01*
Y13069D01*
X51960D01*
Y13092D01*
X51893D01*
Y13114D01*
X51849D01*
Y13136D01*
X51804D01*
Y13158D01*
X51738D01*
Y13180D01*
X51693D01*
Y13203D01*
X51649D01*
Y13225D01*
X51671D01*
Y13247D01*
Y13269D01*
X51693D01*
Y13292D01*
Y13314D01*
X51715D01*
Y13336D01*
Y13358D01*
X51738D01*
Y13380D01*
X51760D01*
Y13403D01*
Y13425D01*
X51782D01*
Y13447D01*
Y13469D01*
X51804D01*
Y13491D01*
Y13514D01*
X51827D01*
Y13536D01*
Y13558D01*
X51849D01*
Y13580D01*
X51871D01*
Y13602D01*
Y13625D01*
X51893D01*
Y13647D01*
Y13669D01*
X51916D01*
Y13691D01*
Y13714D01*
X51938D01*
Y13736D01*
Y13758D01*
X51960D01*
Y13780D01*
Y13803D01*
X51982D01*
Y13825D01*
X52004D01*
Y13847D01*
Y13869D01*
X52027D01*
Y13891D01*
Y13914D01*
X52049D01*
Y13936D01*
Y13958D01*
X52071D01*
Y13980D01*
Y14003D01*
X52093D01*
Y14025D01*
Y14047D01*
X52115D01*
Y14069D01*
X52138D01*
Y14091D01*
Y14114D01*
X52160D01*
Y14136D01*
Y14158D01*
X52182D01*
Y14180D01*
Y14202D01*
X52204D01*
Y14225D01*
Y14247D01*
X52227D01*
Y14269D01*
X52249D01*
Y14291D01*
Y14314D01*
X52271D01*
Y14336D01*
Y14358D01*
X52293D01*
Y14380D01*
Y14402D01*
X52315D01*
Y14425D01*
Y14447D01*
X52338D01*
Y14469D01*
Y14491D01*
X52360D01*
Y14514D01*
X52382D01*
Y14536D01*
Y14558D01*
X52404D01*
Y14580D01*
Y14602D01*
X52426D01*
Y14580D01*
D02*
G37*
D18*
X28189Y38465D02*
D03*
Y4449D02*
D03*
D19*
X7087Y38465D02*
D03*
Y4449D02*
D03*
D20*
X49311Y6791D02*
D03*
D21*
X39311D02*
D03*
D37*
X19612Y35433D02*
D03*
X16412D02*
D03*
X19612Y31693D02*
D03*
X16412D02*
D03*
D38*
X40157Y31496D02*
D03*
X44882D02*
D03*
D39*
X6398Y31102D02*
D03*
X9350D02*
D03*
D40*
X33583Y20472D02*
D03*
X25866Y24213D02*
D03*
Y16732D02*
D03*
D41*
X35827Y38484D02*
D03*
X48622D02*
D03*
D42*
X20669Y22441D02*
D03*
Y24409D02*
D03*
Y18504D02*
D03*
Y16535D02*
D03*
Y20472D02*
D03*
Y14567D02*
D03*
X4921Y18504D02*
D03*
Y24409D02*
D03*
Y22441D02*
D03*
Y16535D02*
D03*
Y20472D02*
D03*
Y14567D02*
D03*
D43*
X13780Y27362D02*
D03*
X11811D02*
D03*
X17717D02*
D03*
X15748D02*
D03*
Y11614D02*
D03*
X13780D02*
D03*
X17717D02*
D03*
X7874Y27362D02*
D03*
X9843D02*
D03*
X11811Y11614D02*
D03*
X9843D02*
D03*
X7874D02*
D03*
D44*
X12795Y19488D02*
D03*
M02*
