G04*
G04 #@! TF.GenerationSoftware,Altium Limited,Altium Designer,20.1.14 (287)*
G04*
G04 Layer_Color=32768*
%FSLAX25Y25*%
%MOIN*%
G70*
G04*
G04 #@! TF.SameCoordinates,393418DF-571C-4769-8AC5-FB63858C89C1*
G04*
G04*
G04 #@! TF.FilePolarity,Positive*
G04*
G01*
G75*
%ADD46C,0.00394*%
%ADD50C,0.00197*%
D46*
X16811Y35433D02*
X19213D01*
X18012Y34232D02*
Y36634D01*
X16811Y31693D02*
X19213D01*
X18012Y30492D02*
Y32894D01*
X42520Y29626D02*
Y33366D01*
X40650Y31496D02*
X44390D01*
X6791Y31102D02*
X8957D01*
X7874Y30020D02*
Y32185D01*
X29724Y18504D02*
Y22441D01*
X27756Y20472D02*
X31693D01*
X42224Y36516D02*
Y40453D01*
X40256Y38484D02*
X44193D01*
X4527Y11220D02*
Y27756D01*
Y11220D02*
X21063D01*
X4527Y27756D02*
X21063D01*
Y11220D02*
Y27756D01*
D50*
X21161Y33661D02*
Y37205D01*
X14862Y33661D02*
Y37205D01*
X21161D01*
X14862Y33661D02*
X21161D01*
Y29921D02*
Y33465D01*
X14862Y29921D02*
Y33465D01*
X21161D01*
X14862Y29921D02*
X21161D01*
X38189Y29134D02*
X46850D01*
X38189Y33858D02*
X46850D01*
X38189Y29134D02*
Y33858D01*
X46850Y29134D02*
Y33858D01*
X4921Y29528D02*
Y32677D01*
X10827Y29528D02*
Y32677D01*
X4921Y29528D02*
X10827D01*
X4921Y32677D02*
X10827D01*
X33504Y905D02*
Y42008D01*
X-1575Y905D02*
X33504D01*
X-1575D02*
Y42008D01*
X33504D01*
X21457Y27362D02*
X37992D01*
X21457Y13583D02*
X37992D01*
Y27362D01*
X21457Y13583D02*
Y27362D01*
X33760Y34154D02*
X50689D01*
X33760Y42815D02*
X50689D01*
X33760Y34154D02*
Y42815D01*
X50689Y34154D02*
Y42815D01*
X15945Y20472D02*
Y18832D01*
X15617Y18504D01*
X14961D01*
X14633Y18832D01*
Y20472D01*
X13977Y18504D02*
X13321D01*
X13649D01*
Y20472D01*
X13977Y20144D01*
M02*
